G04 MADE WITH FRITZING*
G04 WWW.FRITZING.ORG*
G04 DOUBLE SIDED*
G04 HOLES PLATED*
G04 CONTOUR ON CENTER OF CONTOUR VECTOR*
%ASAXBY*%
%FSLAX23Y23*%
%MOIN*%
%OFA0B0*%
%SFA1.0B1.0*%
%ADD10C,0.085000*%
%ADD11C,0.080000*%
%ADD12C,0.072992*%
%ADD13C,0.062000*%
%ADD14R,0.085000X0.085000*%
%ADD15R,0.072992X0.072992*%
%ADD16R,0.001000X0.001000*%
%LNMASK1*%
G90*
G70*
G54D10*
X1197Y1629D03*
X1197Y1229D03*
X997Y1629D03*
X997Y1229D03*
X1097Y1929D03*
X997Y1929D03*
G54D11*
X997Y329D03*
X1098Y329D03*
G54D10*
X1297Y1029D03*
X1597Y1029D03*
X1297Y929D03*
X1597Y929D03*
X1297Y829D03*
X1597Y829D03*
X1297Y729D03*
X1597Y729D03*
G54D12*
X2897Y1329D03*
X2897Y1427D03*
X2897Y730D03*
X2897Y829D03*
X2897Y1029D03*
X2897Y1127D03*
X2897Y429D03*
X2897Y527D03*
G54D10*
X1720Y1673D03*
X1720Y1929D03*
X1897Y1673D03*
X1897Y1929D03*
X2097Y1029D03*
X2497Y1029D03*
X2097Y729D03*
X2497Y729D03*
X2097Y1329D03*
X2497Y1329D03*
X2097Y429D03*
X2497Y429D03*
G54D13*
X397Y1129D03*
X397Y1029D03*
X397Y929D03*
X397Y829D03*
X397Y729D03*
X397Y629D03*
X397Y529D03*
X697Y529D03*
X697Y629D03*
X697Y729D03*
X697Y829D03*
X697Y929D03*
X697Y1029D03*
X697Y1129D03*
X397Y1129D03*
X397Y1029D03*
X397Y929D03*
X397Y829D03*
X397Y729D03*
X397Y629D03*
X397Y529D03*
X697Y529D03*
X697Y629D03*
X697Y729D03*
X697Y829D03*
X697Y929D03*
X697Y1029D03*
X697Y1129D03*
G54D14*
X1097Y1929D03*
X1297Y1029D03*
G54D15*
X2897Y1329D03*
X2897Y730D03*
X2897Y1029D03*
X2897Y429D03*
G54D16*
X370Y1160D02*
X424Y1160D01*
X670Y1160D02*
X724Y1160D01*
X364Y1159D02*
X430Y1159D01*
X663Y1159D02*
X730Y1159D01*
X360Y1158D02*
X433Y1158D01*
X660Y1158D02*
X733Y1158D01*
X358Y1157D02*
X436Y1157D01*
X658Y1157D02*
X736Y1157D01*
X356Y1156D02*
X438Y1156D01*
X656Y1156D02*
X738Y1156D01*
X354Y1155D02*
X439Y1155D01*
X654Y1155D02*
X739Y1155D01*
X353Y1154D02*
X441Y1154D01*
X653Y1154D02*
X741Y1154D01*
X352Y1153D02*
X442Y1153D01*
X652Y1153D02*
X742Y1153D01*
X350Y1152D02*
X443Y1152D01*
X650Y1152D02*
X743Y1152D01*
X349Y1151D02*
X444Y1151D01*
X649Y1151D02*
X744Y1151D01*
X348Y1150D02*
X445Y1150D01*
X648Y1150D02*
X745Y1150D01*
X348Y1149D02*
X446Y1149D01*
X648Y1149D02*
X746Y1149D01*
X347Y1148D02*
X447Y1148D01*
X647Y1148D02*
X747Y1148D01*
X346Y1147D02*
X448Y1147D01*
X646Y1147D02*
X747Y1147D01*
X345Y1146D02*
X448Y1146D01*
X645Y1146D02*
X748Y1146D01*
X345Y1145D02*
X449Y1145D01*
X645Y1145D02*
X749Y1145D01*
X344Y1144D02*
X449Y1144D01*
X644Y1144D02*
X749Y1144D01*
X344Y1143D02*
X450Y1143D01*
X644Y1143D02*
X750Y1143D01*
X343Y1142D02*
X450Y1142D01*
X643Y1142D02*
X750Y1142D01*
X343Y1141D02*
X451Y1141D01*
X643Y1141D02*
X751Y1141D01*
X342Y1140D02*
X395Y1140D01*
X398Y1140D02*
X451Y1140D01*
X642Y1140D02*
X695Y1140D01*
X698Y1140D02*
X751Y1140D01*
X342Y1139D02*
X391Y1139D01*
X402Y1139D02*
X452Y1139D01*
X642Y1139D02*
X691Y1139D01*
X702Y1139D02*
X752Y1139D01*
X342Y1138D02*
X390Y1138D01*
X404Y1138D02*
X452Y1138D01*
X642Y1138D02*
X690Y1138D01*
X704Y1138D02*
X752Y1138D01*
X341Y1137D02*
X389Y1137D01*
X405Y1137D02*
X452Y1137D01*
X641Y1137D02*
X689Y1137D01*
X705Y1137D02*
X752Y1137D01*
X341Y1136D02*
X388Y1136D01*
X406Y1136D02*
X452Y1136D01*
X641Y1136D02*
X688Y1136D01*
X706Y1136D02*
X752Y1136D01*
X341Y1135D02*
X387Y1135D01*
X407Y1135D02*
X453Y1135D01*
X641Y1135D02*
X687Y1135D01*
X707Y1135D02*
X753Y1135D01*
X341Y1134D02*
X386Y1134D01*
X407Y1134D02*
X453Y1134D01*
X641Y1134D02*
X686Y1134D01*
X707Y1134D02*
X753Y1134D01*
X341Y1133D02*
X386Y1133D01*
X408Y1133D02*
X453Y1133D01*
X641Y1133D02*
X686Y1133D01*
X708Y1133D02*
X753Y1133D01*
X340Y1132D02*
X386Y1132D01*
X408Y1132D02*
X453Y1132D01*
X640Y1132D02*
X686Y1132D01*
X708Y1132D02*
X753Y1132D01*
X340Y1131D02*
X385Y1131D01*
X408Y1131D02*
X453Y1131D01*
X640Y1131D02*
X685Y1131D01*
X708Y1131D02*
X753Y1131D01*
X340Y1130D02*
X385Y1130D01*
X408Y1130D02*
X453Y1130D01*
X640Y1130D02*
X685Y1130D01*
X708Y1130D02*
X753Y1130D01*
X340Y1129D02*
X385Y1129D01*
X408Y1129D02*
X453Y1129D01*
X640Y1129D02*
X685Y1129D01*
X708Y1129D02*
X753Y1129D01*
X340Y1128D02*
X385Y1128D01*
X408Y1128D02*
X453Y1128D01*
X640Y1128D02*
X685Y1128D01*
X708Y1128D02*
X753Y1128D01*
X340Y1127D02*
X385Y1127D01*
X408Y1127D02*
X453Y1127D01*
X640Y1127D02*
X685Y1127D01*
X708Y1127D02*
X753Y1127D01*
X341Y1126D02*
X386Y1126D01*
X408Y1126D02*
X453Y1126D01*
X640Y1126D02*
X686Y1126D01*
X708Y1126D02*
X753Y1126D01*
X341Y1125D02*
X386Y1125D01*
X408Y1125D02*
X453Y1125D01*
X641Y1125D02*
X686Y1125D01*
X708Y1125D02*
X753Y1125D01*
X341Y1124D02*
X387Y1124D01*
X407Y1124D02*
X453Y1124D01*
X641Y1124D02*
X687Y1124D01*
X707Y1124D02*
X753Y1124D01*
X341Y1123D02*
X387Y1123D01*
X406Y1123D02*
X453Y1123D01*
X641Y1123D02*
X687Y1123D01*
X706Y1123D02*
X753Y1123D01*
X341Y1122D02*
X388Y1122D01*
X406Y1122D02*
X452Y1122D01*
X641Y1122D02*
X688Y1122D01*
X706Y1122D02*
X752Y1122D01*
X341Y1121D02*
X389Y1121D01*
X405Y1121D02*
X452Y1121D01*
X641Y1121D02*
X689Y1121D01*
X705Y1121D02*
X752Y1121D01*
X342Y1120D02*
X390Y1120D01*
X404Y1120D02*
X452Y1120D01*
X642Y1120D02*
X690Y1120D01*
X703Y1120D02*
X752Y1120D01*
X342Y1119D02*
X392Y1119D01*
X402Y1119D02*
X452Y1119D01*
X642Y1119D02*
X692Y1119D01*
X702Y1119D02*
X751Y1119D01*
X343Y1118D02*
X451Y1118D01*
X642Y1118D02*
X751Y1118D01*
X343Y1117D02*
X451Y1117D01*
X643Y1117D02*
X751Y1117D01*
X343Y1116D02*
X450Y1116D01*
X643Y1116D02*
X750Y1116D01*
X344Y1115D02*
X450Y1115D01*
X644Y1115D02*
X750Y1115D01*
X344Y1114D02*
X449Y1114D01*
X644Y1114D02*
X749Y1114D01*
X345Y1113D02*
X449Y1113D01*
X645Y1113D02*
X749Y1113D01*
X346Y1112D02*
X448Y1112D01*
X646Y1112D02*
X748Y1112D01*
X346Y1111D02*
X447Y1111D01*
X646Y1111D02*
X747Y1111D01*
X347Y1110D02*
X447Y1110D01*
X647Y1110D02*
X747Y1110D01*
X348Y1109D02*
X446Y1109D01*
X648Y1109D02*
X746Y1109D01*
X349Y1108D02*
X445Y1108D01*
X649Y1108D02*
X745Y1108D01*
X350Y1107D02*
X444Y1107D01*
X650Y1107D02*
X744Y1107D01*
X351Y1106D02*
X443Y1106D01*
X651Y1106D02*
X743Y1106D01*
X352Y1105D02*
X442Y1105D01*
X652Y1105D02*
X742Y1105D01*
X353Y1104D02*
X440Y1104D01*
X653Y1104D02*
X740Y1104D01*
X355Y1103D02*
X439Y1103D01*
X655Y1103D02*
X739Y1103D01*
X356Y1102D02*
X437Y1102D01*
X656Y1102D02*
X737Y1102D01*
X358Y1101D02*
X435Y1101D01*
X658Y1101D02*
X735Y1101D01*
X361Y1100D02*
X433Y1100D01*
X661Y1100D02*
X733Y1100D01*
X364Y1099D02*
X429Y1099D01*
X664Y1099D02*
X729Y1099D01*
X369Y1060D02*
X424Y1060D01*
X669Y1060D02*
X724Y1060D01*
X364Y1059D02*
X430Y1059D01*
X663Y1059D02*
X730Y1059D01*
X360Y1058D02*
X433Y1058D01*
X660Y1058D02*
X733Y1058D01*
X358Y1057D02*
X436Y1057D01*
X658Y1057D02*
X736Y1057D01*
X356Y1056D02*
X438Y1056D01*
X656Y1056D02*
X738Y1056D01*
X354Y1055D02*
X439Y1055D01*
X654Y1055D02*
X739Y1055D01*
X353Y1054D02*
X441Y1054D01*
X653Y1054D02*
X741Y1054D01*
X352Y1053D02*
X442Y1053D01*
X652Y1053D02*
X742Y1053D01*
X350Y1052D02*
X443Y1052D01*
X650Y1052D02*
X743Y1052D01*
X349Y1051D02*
X444Y1051D01*
X649Y1051D02*
X744Y1051D01*
X348Y1050D02*
X445Y1050D01*
X648Y1050D02*
X745Y1050D01*
X348Y1049D02*
X446Y1049D01*
X648Y1049D02*
X746Y1049D01*
X347Y1048D02*
X447Y1048D01*
X647Y1048D02*
X747Y1048D01*
X346Y1047D02*
X448Y1047D01*
X646Y1047D02*
X748Y1047D01*
X345Y1046D02*
X448Y1046D01*
X645Y1046D02*
X748Y1046D01*
X345Y1045D02*
X449Y1045D01*
X645Y1045D02*
X749Y1045D01*
X344Y1044D02*
X449Y1044D01*
X644Y1044D02*
X749Y1044D01*
X344Y1043D02*
X450Y1043D01*
X644Y1043D02*
X750Y1043D01*
X343Y1042D02*
X450Y1042D01*
X643Y1042D02*
X750Y1042D01*
X343Y1041D02*
X451Y1041D01*
X643Y1041D02*
X751Y1041D01*
X342Y1040D02*
X395Y1040D01*
X399Y1040D02*
X451Y1040D01*
X642Y1040D02*
X695Y1040D01*
X699Y1040D02*
X751Y1040D01*
X342Y1039D02*
X391Y1039D01*
X402Y1039D02*
X452Y1039D01*
X642Y1039D02*
X691Y1039D01*
X702Y1039D02*
X752Y1039D01*
X342Y1038D02*
X390Y1038D01*
X404Y1038D02*
X452Y1038D01*
X642Y1038D02*
X690Y1038D01*
X704Y1038D02*
X752Y1038D01*
X341Y1037D02*
X389Y1037D01*
X405Y1037D02*
X452Y1037D01*
X641Y1037D02*
X689Y1037D01*
X705Y1037D02*
X752Y1037D01*
X341Y1036D02*
X388Y1036D01*
X406Y1036D02*
X452Y1036D01*
X641Y1036D02*
X688Y1036D01*
X706Y1036D02*
X752Y1036D01*
X341Y1035D02*
X387Y1035D01*
X407Y1035D02*
X453Y1035D01*
X641Y1035D02*
X687Y1035D01*
X707Y1035D02*
X753Y1035D01*
X341Y1034D02*
X386Y1034D01*
X407Y1034D02*
X453Y1034D01*
X641Y1034D02*
X686Y1034D01*
X707Y1034D02*
X753Y1034D01*
X341Y1033D02*
X386Y1033D01*
X408Y1033D02*
X453Y1033D01*
X641Y1033D02*
X686Y1033D01*
X708Y1033D02*
X753Y1033D01*
X340Y1032D02*
X386Y1032D01*
X408Y1032D02*
X453Y1032D01*
X640Y1032D02*
X686Y1032D01*
X708Y1032D02*
X753Y1032D01*
X340Y1031D02*
X385Y1031D01*
X408Y1031D02*
X453Y1031D01*
X640Y1031D02*
X685Y1031D01*
X708Y1031D02*
X753Y1031D01*
X340Y1030D02*
X385Y1030D01*
X408Y1030D02*
X453Y1030D01*
X640Y1030D02*
X685Y1030D01*
X708Y1030D02*
X753Y1030D01*
X340Y1029D02*
X385Y1029D01*
X408Y1029D02*
X453Y1029D01*
X640Y1029D02*
X685Y1029D01*
X708Y1029D02*
X753Y1029D01*
X340Y1028D02*
X385Y1028D01*
X408Y1028D02*
X453Y1028D01*
X640Y1028D02*
X685Y1028D01*
X708Y1028D02*
X753Y1028D01*
X340Y1027D02*
X385Y1027D01*
X408Y1027D02*
X453Y1027D01*
X640Y1027D02*
X685Y1027D01*
X708Y1027D02*
X753Y1027D01*
X341Y1026D02*
X386Y1026D01*
X408Y1026D02*
X453Y1026D01*
X640Y1026D02*
X686Y1026D01*
X708Y1026D02*
X753Y1026D01*
X341Y1025D02*
X386Y1025D01*
X408Y1025D02*
X453Y1025D01*
X641Y1025D02*
X686Y1025D01*
X708Y1025D02*
X753Y1025D01*
X341Y1024D02*
X387Y1024D01*
X407Y1024D02*
X453Y1024D01*
X641Y1024D02*
X687Y1024D01*
X707Y1024D02*
X753Y1024D01*
X341Y1023D02*
X387Y1023D01*
X406Y1023D02*
X453Y1023D01*
X641Y1023D02*
X687Y1023D01*
X706Y1023D02*
X753Y1023D01*
X341Y1022D02*
X388Y1022D01*
X406Y1022D02*
X452Y1022D01*
X641Y1022D02*
X688Y1022D01*
X706Y1022D02*
X752Y1022D01*
X342Y1021D02*
X389Y1021D01*
X405Y1021D02*
X452Y1021D01*
X641Y1021D02*
X689Y1021D01*
X705Y1021D02*
X752Y1021D01*
X342Y1020D02*
X390Y1020D01*
X404Y1020D02*
X452Y1020D01*
X642Y1020D02*
X690Y1020D01*
X703Y1020D02*
X752Y1020D01*
X342Y1019D02*
X392Y1019D01*
X402Y1019D02*
X452Y1019D01*
X642Y1019D02*
X692Y1019D01*
X702Y1019D02*
X751Y1019D01*
X343Y1018D02*
X451Y1018D01*
X642Y1018D02*
X751Y1018D01*
X343Y1017D02*
X451Y1017D01*
X643Y1017D02*
X751Y1017D01*
X343Y1016D02*
X450Y1016D01*
X643Y1016D02*
X750Y1016D01*
X344Y1015D02*
X450Y1015D01*
X644Y1015D02*
X750Y1015D01*
X344Y1014D02*
X449Y1014D01*
X644Y1014D02*
X749Y1014D01*
X345Y1013D02*
X449Y1013D01*
X645Y1013D02*
X749Y1013D01*
X346Y1012D02*
X448Y1012D01*
X646Y1012D02*
X748Y1012D01*
X346Y1011D02*
X447Y1011D01*
X646Y1011D02*
X747Y1011D01*
X347Y1010D02*
X447Y1010D01*
X647Y1010D02*
X747Y1010D01*
X348Y1009D02*
X446Y1009D01*
X648Y1009D02*
X746Y1009D01*
X349Y1008D02*
X445Y1008D01*
X649Y1008D02*
X745Y1008D01*
X350Y1007D02*
X444Y1007D01*
X650Y1007D02*
X744Y1007D01*
X351Y1006D02*
X443Y1006D01*
X651Y1006D02*
X743Y1006D01*
X352Y1005D02*
X442Y1005D01*
X652Y1005D02*
X742Y1005D01*
X353Y1004D02*
X440Y1004D01*
X653Y1004D02*
X740Y1004D01*
X355Y1003D02*
X439Y1003D01*
X655Y1003D02*
X739Y1003D01*
X356Y1002D02*
X437Y1002D01*
X656Y1002D02*
X737Y1002D01*
X359Y1001D02*
X435Y1001D01*
X658Y1001D02*
X735Y1001D01*
X361Y1000D02*
X433Y1000D01*
X661Y1000D02*
X733Y1000D01*
X364Y999D02*
X429Y999D01*
X664Y999D02*
X729Y999D01*
X369Y960D02*
X424Y960D01*
X669Y960D02*
X724Y960D01*
X363Y959D02*
X430Y959D01*
X663Y959D02*
X730Y959D01*
X360Y958D02*
X433Y958D01*
X660Y958D02*
X733Y958D01*
X358Y957D02*
X436Y957D01*
X658Y957D02*
X736Y957D01*
X356Y956D02*
X438Y956D01*
X656Y956D02*
X738Y956D01*
X354Y955D02*
X439Y955D01*
X654Y955D02*
X739Y955D01*
X353Y954D02*
X441Y954D01*
X653Y954D02*
X741Y954D01*
X352Y953D02*
X442Y953D01*
X652Y953D02*
X742Y953D01*
X350Y952D02*
X443Y952D01*
X650Y952D02*
X743Y952D01*
X349Y951D02*
X444Y951D01*
X649Y951D02*
X744Y951D01*
X348Y950D02*
X445Y950D01*
X648Y950D02*
X745Y950D01*
X348Y949D02*
X446Y949D01*
X648Y949D02*
X746Y949D01*
X347Y948D02*
X447Y948D01*
X647Y948D02*
X747Y948D01*
X346Y947D02*
X448Y947D01*
X646Y947D02*
X748Y947D01*
X345Y946D02*
X448Y946D01*
X645Y946D02*
X748Y946D01*
X345Y945D02*
X449Y945D01*
X645Y945D02*
X749Y945D01*
X344Y944D02*
X449Y944D01*
X644Y944D02*
X749Y944D01*
X344Y943D02*
X450Y943D01*
X644Y943D02*
X750Y943D01*
X343Y942D02*
X450Y942D01*
X643Y942D02*
X750Y942D01*
X343Y941D02*
X451Y941D01*
X643Y941D02*
X751Y941D01*
X342Y940D02*
X395Y940D01*
X399Y940D02*
X451Y940D01*
X642Y940D02*
X695Y940D01*
X699Y940D02*
X751Y940D01*
X342Y939D02*
X391Y939D01*
X402Y939D02*
X452Y939D01*
X642Y939D02*
X691Y939D01*
X702Y939D02*
X752Y939D01*
X342Y938D02*
X390Y938D01*
X404Y938D02*
X452Y938D01*
X642Y938D02*
X690Y938D01*
X704Y938D02*
X752Y938D01*
X341Y937D02*
X389Y937D01*
X405Y937D02*
X452Y937D01*
X641Y937D02*
X689Y937D01*
X705Y937D02*
X752Y937D01*
X341Y936D02*
X388Y936D01*
X406Y936D02*
X452Y936D01*
X641Y936D02*
X688Y936D01*
X706Y936D02*
X752Y936D01*
X341Y935D02*
X387Y935D01*
X407Y935D02*
X453Y935D01*
X641Y935D02*
X687Y935D01*
X707Y935D02*
X753Y935D01*
X341Y934D02*
X386Y934D01*
X407Y934D02*
X453Y934D01*
X641Y934D02*
X686Y934D01*
X707Y934D02*
X753Y934D01*
X341Y933D02*
X386Y933D01*
X408Y933D02*
X453Y933D01*
X641Y933D02*
X686Y933D01*
X708Y933D02*
X753Y933D01*
X340Y932D02*
X386Y932D01*
X408Y932D02*
X453Y932D01*
X640Y932D02*
X686Y932D01*
X708Y932D02*
X753Y932D01*
X340Y931D02*
X385Y931D01*
X408Y931D02*
X453Y931D01*
X640Y931D02*
X685Y931D01*
X708Y931D02*
X753Y931D01*
X340Y930D02*
X385Y930D01*
X408Y930D02*
X453Y930D01*
X640Y930D02*
X685Y930D01*
X708Y930D02*
X753Y930D01*
X340Y929D02*
X385Y929D01*
X408Y929D02*
X453Y929D01*
X640Y929D02*
X685Y929D01*
X708Y929D02*
X753Y929D01*
X340Y928D02*
X385Y928D01*
X408Y928D02*
X453Y928D01*
X640Y928D02*
X685Y928D01*
X708Y928D02*
X753Y928D01*
X340Y927D02*
X385Y927D01*
X408Y927D02*
X453Y927D01*
X640Y927D02*
X685Y927D01*
X708Y927D02*
X753Y927D01*
X341Y926D02*
X386Y926D01*
X408Y926D02*
X453Y926D01*
X640Y926D02*
X686Y926D01*
X708Y926D02*
X753Y926D01*
X341Y925D02*
X386Y925D01*
X408Y925D02*
X453Y925D01*
X641Y925D02*
X686Y925D01*
X708Y925D02*
X753Y925D01*
X341Y924D02*
X387Y924D01*
X407Y924D02*
X453Y924D01*
X641Y924D02*
X687Y924D01*
X707Y924D02*
X753Y924D01*
X341Y923D02*
X387Y923D01*
X406Y923D02*
X453Y923D01*
X641Y923D02*
X687Y923D01*
X706Y923D02*
X753Y923D01*
X341Y922D02*
X388Y922D01*
X406Y922D02*
X452Y922D01*
X641Y922D02*
X688Y922D01*
X706Y922D02*
X752Y922D01*
X342Y921D02*
X389Y921D01*
X405Y921D02*
X452Y921D01*
X641Y921D02*
X689Y921D01*
X705Y921D02*
X752Y921D01*
X342Y920D02*
X390Y920D01*
X403Y920D02*
X452Y920D01*
X642Y920D02*
X690Y920D01*
X703Y920D02*
X752Y920D01*
X342Y919D02*
X392Y919D01*
X402Y919D02*
X451Y919D01*
X642Y919D02*
X692Y919D01*
X702Y919D02*
X751Y919D01*
X343Y918D02*
X451Y918D01*
X642Y918D02*
X751Y918D01*
X343Y917D02*
X451Y917D01*
X643Y917D02*
X751Y917D01*
X343Y916D02*
X450Y916D01*
X643Y916D02*
X750Y916D01*
X344Y915D02*
X450Y915D01*
X644Y915D02*
X750Y915D01*
X344Y914D02*
X449Y914D01*
X644Y914D02*
X749Y914D01*
X345Y913D02*
X449Y913D01*
X645Y913D02*
X749Y913D01*
X346Y912D02*
X448Y912D01*
X646Y912D02*
X748Y912D01*
X346Y911D02*
X447Y911D01*
X646Y911D02*
X747Y911D01*
X347Y910D02*
X447Y910D01*
X647Y910D02*
X747Y910D01*
X348Y909D02*
X446Y909D01*
X648Y909D02*
X746Y909D01*
X349Y908D02*
X445Y908D01*
X649Y908D02*
X745Y908D01*
X350Y907D02*
X444Y907D01*
X650Y907D02*
X744Y907D01*
X351Y906D02*
X443Y906D01*
X651Y906D02*
X743Y906D01*
X352Y905D02*
X442Y905D01*
X652Y905D02*
X742Y905D01*
X353Y904D02*
X440Y904D01*
X653Y904D02*
X740Y904D01*
X355Y903D02*
X439Y903D01*
X655Y903D02*
X739Y903D01*
X356Y902D02*
X437Y902D01*
X656Y902D02*
X737Y902D01*
X359Y901D02*
X435Y901D01*
X659Y901D02*
X735Y901D01*
X361Y900D02*
X433Y900D01*
X661Y900D02*
X733Y900D01*
X364Y899D02*
X429Y899D01*
X664Y899D02*
X729Y899D01*
X369Y860D02*
X425Y860D01*
X669Y860D02*
X725Y860D01*
X363Y859D02*
X430Y859D01*
X663Y859D02*
X730Y859D01*
X360Y858D02*
X433Y858D01*
X660Y858D02*
X733Y858D01*
X358Y857D02*
X436Y857D01*
X658Y857D02*
X736Y857D01*
X356Y856D02*
X438Y856D01*
X656Y856D02*
X738Y856D01*
X354Y855D02*
X439Y855D01*
X654Y855D02*
X739Y855D01*
X353Y854D02*
X441Y854D01*
X653Y854D02*
X741Y854D01*
X352Y853D02*
X442Y853D01*
X652Y853D02*
X742Y853D01*
X350Y852D02*
X443Y852D01*
X650Y852D02*
X743Y852D01*
X349Y851D02*
X444Y851D01*
X649Y851D02*
X744Y851D01*
X348Y850D02*
X445Y850D01*
X648Y850D02*
X745Y850D01*
X348Y849D02*
X446Y849D01*
X648Y849D02*
X746Y849D01*
X347Y848D02*
X447Y848D01*
X647Y848D02*
X747Y848D01*
X346Y847D02*
X448Y847D01*
X646Y847D02*
X748Y847D01*
X345Y846D02*
X448Y846D01*
X645Y846D02*
X748Y846D01*
X345Y845D02*
X449Y845D01*
X645Y845D02*
X749Y845D01*
X344Y844D02*
X449Y844D01*
X644Y844D02*
X749Y844D01*
X344Y843D02*
X450Y843D01*
X644Y843D02*
X750Y843D01*
X343Y842D02*
X450Y842D01*
X643Y842D02*
X750Y842D01*
X343Y841D02*
X451Y841D01*
X643Y841D02*
X751Y841D01*
X342Y840D02*
X395Y840D01*
X399Y840D02*
X451Y840D01*
X642Y840D02*
X695Y840D01*
X699Y840D02*
X751Y840D01*
X342Y839D02*
X391Y839D01*
X402Y839D02*
X452Y839D01*
X642Y839D02*
X691Y839D01*
X702Y839D02*
X752Y839D01*
X342Y838D02*
X390Y838D01*
X404Y838D02*
X452Y838D01*
X642Y838D02*
X690Y838D01*
X704Y838D02*
X752Y838D01*
X341Y837D02*
X389Y837D01*
X405Y837D02*
X452Y837D01*
X641Y837D02*
X689Y837D01*
X705Y837D02*
X752Y837D01*
X341Y836D02*
X388Y836D01*
X406Y836D02*
X452Y836D01*
X641Y836D02*
X688Y836D01*
X706Y836D02*
X752Y836D01*
X341Y835D02*
X387Y835D01*
X407Y835D02*
X453Y835D01*
X641Y835D02*
X687Y835D01*
X707Y835D02*
X753Y835D01*
X341Y834D02*
X386Y834D01*
X407Y834D02*
X453Y834D01*
X641Y834D02*
X686Y834D01*
X707Y834D02*
X753Y834D01*
X341Y833D02*
X386Y833D01*
X408Y833D02*
X453Y833D01*
X641Y833D02*
X686Y833D01*
X708Y833D02*
X753Y833D01*
X340Y832D02*
X386Y832D01*
X408Y832D02*
X453Y832D01*
X640Y832D02*
X686Y832D01*
X708Y832D02*
X753Y832D01*
X340Y831D02*
X385Y831D01*
X408Y831D02*
X453Y831D01*
X640Y831D02*
X685Y831D01*
X708Y831D02*
X753Y831D01*
X340Y830D02*
X385Y830D01*
X408Y830D02*
X453Y830D01*
X640Y830D02*
X685Y830D01*
X708Y830D02*
X753Y830D01*
X340Y829D02*
X385Y829D01*
X408Y829D02*
X453Y829D01*
X640Y829D02*
X685Y829D01*
X708Y829D02*
X753Y829D01*
X340Y828D02*
X385Y828D01*
X408Y828D02*
X453Y828D01*
X640Y828D02*
X685Y828D01*
X708Y828D02*
X753Y828D01*
X340Y827D02*
X385Y827D01*
X408Y827D02*
X453Y827D01*
X640Y827D02*
X685Y827D01*
X708Y827D02*
X753Y827D01*
X341Y826D02*
X386Y826D01*
X408Y826D02*
X453Y826D01*
X640Y826D02*
X686Y826D01*
X708Y826D02*
X753Y826D01*
X341Y825D02*
X386Y825D01*
X408Y825D02*
X453Y825D01*
X641Y825D02*
X686Y825D01*
X708Y825D02*
X753Y825D01*
X341Y824D02*
X387Y824D01*
X407Y824D02*
X453Y824D01*
X641Y824D02*
X687Y824D01*
X707Y824D02*
X753Y824D01*
X341Y823D02*
X387Y823D01*
X406Y823D02*
X453Y823D01*
X641Y823D02*
X687Y823D01*
X706Y823D02*
X753Y823D01*
X341Y822D02*
X388Y822D01*
X406Y822D02*
X452Y822D01*
X641Y822D02*
X688Y822D01*
X706Y822D02*
X752Y822D01*
X342Y821D02*
X389Y821D01*
X405Y821D02*
X452Y821D01*
X641Y821D02*
X689Y821D01*
X705Y821D02*
X752Y821D01*
X342Y820D02*
X390Y820D01*
X403Y820D02*
X452Y820D01*
X642Y820D02*
X690Y820D01*
X703Y820D02*
X752Y820D01*
X342Y819D02*
X392Y819D01*
X402Y819D02*
X451Y819D01*
X642Y819D02*
X692Y819D01*
X702Y819D02*
X751Y819D01*
X343Y818D02*
X451Y818D01*
X642Y818D02*
X751Y818D01*
X343Y817D02*
X451Y817D01*
X643Y817D02*
X751Y817D01*
X343Y816D02*
X450Y816D01*
X643Y816D02*
X750Y816D01*
X344Y815D02*
X450Y815D01*
X644Y815D02*
X750Y815D01*
X344Y814D02*
X449Y814D01*
X644Y814D02*
X749Y814D01*
X345Y813D02*
X449Y813D01*
X645Y813D02*
X749Y813D01*
X346Y812D02*
X448Y812D01*
X646Y812D02*
X748Y812D01*
X346Y811D02*
X447Y811D01*
X646Y811D02*
X747Y811D01*
X347Y810D02*
X447Y810D01*
X647Y810D02*
X747Y810D01*
X348Y809D02*
X446Y809D01*
X648Y809D02*
X746Y809D01*
X349Y808D02*
X445Y808D01*
X649Y808D02*
X745Y808D01*
X350Y807D02*
X444Y807D01*
X650Y807D02*
X744Y807D01*
X351Y806D02*
X443Y806D01*
X651Y806D02*
X743Y806D01*
X352Y805D02*
X442Y805D01*
X652Y805D02*
X742Y805D01*
X353Y804D02*
X440Y804D01*
X653Y804D02*
X740Y804D01*
X355Y803D02*
X439Y803D01*
X655Y803D02*
X739Y803D01*
X357Y802D02*
X437Y802D01*
X656Y802D02*
X737Y802D01*
X359Y801D02*
X435Y801D01*
X659Y801D02*
X735Y801D01*
X361Y800D02*
X433Y800D01*
X661Y800D02*
X733Y800D01*
X364Y799D02*
X429Y799D01*
X664Y799D02*
X729Y799D01*
X369Y760D02*
X425Y760D01*
X669Y760D02*
X725Y760D01*
X363Y759D02*
X430Y759D01*
X663Y759D02*
X730Y759D01*
X360Y758D02*
X433Y758D01*
X660Y758D02*
X733Y758D01*
X358Y757D02*
X436Y757D01*
X658Y757D02*
X736Y757D01*
X356Y756D02*
X438Y756D01*
X656Y756D02*
X738Y756D01*
X354Y755D02*
X439Y755D01*
X654Y755D02*
X739Y755D01*
X353Y754D02*
X441Y754D01*
X653Y754D02*
X741Y754D01*
X352Y753D02*
X442Y753D01*
X652Y753D02*
X742Y753D01*
X350Y752D02*
X443Y752D01*
X650Y752D02*
X743Y752D01*
X349Y751D02*
X444Y751D01*
X649Y751D02*
X744Y751D01*
X348Y750D02*
X445Y750D01*
X648Y750D02*
X745Y750D01*
X348Y749D02*
X446Y749D01*
X648Y749D02*
X746Y749D01*
X347Y748D02*
X447Y748D01*
X647Y748D02*
X747Y748D01*
X346Y747D02*
X448Y747D01*
X646Y747D02*
X748Y747D01*
X345Y746D02*
X448Y746D01*
X645Y746D02*
X748Y746D01*
X345Y745D02*
X449Y745D01*
X645Y745D02*
X749Y745D01*
X344Y744D02*
X449Y744D01*
X644Y744D02*
X749Y744D01*
X344Y743D02*
X450Y743D01*
X644Y743D02*
X750Y743D01*
X343Y742D02*
X450Y742D01*
X643Y742D02*
X750Y742D01*
X343Y741D02*
X451Y741D01*
X643Y741D02*
X751Y741D01*
X342Y740D02*
X395Y740D01*
X399Y740D02*
X451Y740D01*
X642Y740D02*
X695Y740D01*
X699Y740D02*
X751Y740D01*
X342Y739D02*
X391Y739D01*
X402Y739D02*
X452Y739D01*
X642Y739D02*
X691Y739D01*
X702Y739D02*
X752Y739D01*
X342Y738D02*
X390Y738D01*
X404Y738D02*
X452Y738D01*
X642Y738D02*
X690Y738D01*
X704Y738D02*
X752Y738D01*
X341Y737D02*
X389Y737D01*
X405Y737D02*
X452Y737D01*
X641Y737D02*
X689Y737D01*
X705Y737D02*
X752Y737D01*
X341Y736D02*
X388Y736D01*
X406Y736D02*
X452Y736D01*
X641Y736D02*
X688Y736D01*
X706Y736D02*
X752Y736D01*
X341Y735D02*
X387Y735D01*
X407Y735D02*
X453Y735D01*
X641Y735D02*
X687Y735D01*
X707Y735D02*
X753Y735D01*
X341Y734D02*
X386Y734D01*
X407Y734D02*
X453Y734D01*
X641Y734D02*
X686Y734D01*
X707Y734D02*
X753Y734D01*
X341Y733D02*
X386Y733D01*
X408Y733D02*
X453Y733D01*
X641Y733D02*
X686Y733D01*
X708Y733D02*
X753Y733D01*
X340Y732D02*
X386Y732D01*
X408Y732D02*
X453Y732D01*
X640Y732D02*
X686Y732D01*
X708Y732D02*
X753Y732D01*
X340Y731D02*
X385Y731D01*
X408Y731D02*
X453Y731D01*
X640Y731D02*
X685Y731D01*
X708Y731D02*
X753Y731D01*
X340Y730D02*
X385Y730D01*
X408Y730D02*
X453Y730D01*
X640Y730D02*
X685Y730D01*
X708Y730D02*
X753Y730D01*
X340Y729D02*
X385Y729D01*
X408Y729D02*
X453Y729D01*
X640Y729D02*
X685Y729D01*
X708Y729D02*
X753Y729D01*
X340Y728D02*
X385Y728D01*
X408Y728D02*
X453Y728D01*
X640Y728D02*
X685Y728D01*
X708Y728D02*
X753Y728D01*
X340Y727D02*
X386Y727D01*
X408Y727D02*
X453Y727D01*
X640Y727D02*
X685Y727D01*
X708Y727D02*
X753Y727D01*
X341Y726D02*
X386Y726D01*
X408Y726D02*
X453Y726D01*
X640Y726D02*
X686Y726D01*
X708Y726D02*
X753Y726D01*
X341Y725D02*
X386Y725D01*
X408Y725D02*
X453Y725D01*
X641Y725D02*
X686Y725D01*
X708Y725D02*
X753Y725D01*
X341Y724D02*
X387Y724D01*
X407Y724D02*
X453Y724D01*
X641Y724D02*
X687Y724D01*
X707Y724D02*
X753Y724D01*
X341Y723D02*
X387Y723D01*
X406Y723D02*
X453Y723D01*
X641Y723D02*
X687Y723D01*
X706Y723D02*
X753Y723D01*
X341Y722D02*
X388Y722D01*
X406Y722D02*
X452Y722D01*
X641Y722D02*
X688Y722D01*
X706Y722D02*
X752Y722D01*
X342Y721D02*
X389Y721D01*
X405Y721D02*
X452Y721D01*
X641Y721D02*
X689Y721D01*
X705Y721D02*
X752Y721D01*
X342Y720D02*
X390Y720D01*
X403Y720D02*
X452Y720D01*
X642Y720D02*
X690Y720D01*
X703Y720D02*
X752Y720D01*
X342Y719D02*
X392Y719D01*
X402Y719D02*
X451Y719D01*
X642Y719D02*
X692Y719D01*
X702Y719D02*
X751Y719D01*
X343Y718D02*
X451Y718D01*
X642Y718D02*
X751Y718D01*
X343Y717D02*
X451Y717D01*
X643Y717D02*
X751Y717D01*
X343Y716D02*
X450Y716D01*
X643Y716D02*
X750Y716D01*
X344Y715D02*
X450Y715D01*
X644Y715D02*
X750Y715D01*
X344Y714D02*
X449Y714D01*
X644Y714D02*
X749Y714D01*
X345Y713D02*
X449Y713D01*
X645Y713D02*
X749Y713D01*
X346Y712D02*
X448Y712D01*
X646Y712D02*
X748Y712D01*
X346Y711D02*
X447Y711D01*
X646Y711D02*
X747Y711D01*
X347Y710D02*
X447Y710D01*
X647Y710D02*
X747Y710D01*
X348Y709D02*
X446Y709D01*
X648Y709D02*
X746Y709D01*
X349Y708D02*
X445Y708D01*
X649Y708D02*
X745Y708D01*
X350Y707D02*
X444Y707D01*
X650Y707D02*
X744Y707D01*
X351Y706D02*
X443Y706D01*
X651Y706D02*
X743Y706D01*
X352Y705D02*
X442Y705D01*
X652Y705D02*
X742Y705D01*
X353Y704D02*
X440Y704D01*
X653Y704D02*
X740Y704D01*
X355Y703D02*
X439Y703D01*
X655Y703D02*
X739Y703D01*
X357Y702D02*
X437Y702D01*
X657Y702D02*
X737Y702D01*
X359Y701D02*
X435Y701D01*
X659Y701D02*
X735Y701D01*
X361Y700D02*
X433Y700D01*
X661Y700D02*
X733Y700D01*
X364Y699D02*
X429Y699D01*
X664Y699D02*
X729Y699D01*
X369Y660D02*
X425Y660D01*
X669Y660D02*
X725Y660D01*
X363Y659D02*
X430Y659D01*
X663Y659D02*
X730Y659D01*
X360Y658D02*
X433Y658D01*
X660Y658D02*
X733Y658D01*
X358Y657D02*
X436Y657D01*
X658Y657D02*
X736Y657D01*
X356Y656D02*
X438Y656D01*
X656Y656D02*
X738Y656D01*
X354Y655D02*
X439Y655D01*
X654Y655D02*
X739Y655D01*
X353Y654D02*
X441Y654D01*
X653Y654D02*
X741Y654D01*
X352Y653D02*
X442Y653D01*
X652Y653D02*
X742Y653D01*
X350Y652D02*
X443Y652D01*
X650Y652D02*
X743Y652D01*
X349Y651D02*
X444Y651D01*
X649Y651D02*
X744Y651D01*
X348Y650D02*
X445Y650D01*
X648Y650D02*
X745Y650D01*
X348Y649D02*
X446Y649D01*
X648Y649D02*
X746Y649D01*
X347Y648D02*
X447Y648D01*
X647Y648D02*
X747Y648D01*
X346Y647D02*
X448Y647D01*
X646Y647D02*
X748Y647D01*
X345Y646D02*
X448Y646D01*
X645Y646D02*
X748Y646D01*
X345Y645D02*
X449Y645D01*
X645Y645D02*
X749Y645D01*
X344Y644D02*
X449Y644D01*
X644Y644D02*
X749Y644D01*
X344Y643D02*
X450Y643D01*
X644Y643D02*
X750Y643D01*
X343Y642D02*
X450Y642D01*
X643Y642D02*
X750Y642D01*
X343Y641D02*
X451Y641D01*
X643Y641D02*
X751Y641D01*
X342Y640D02*
X395Y640D01*
X399Y640D02*
X451Y640D01*
X642Y640D02*
X695Y640D01*
X699Y640D02*
X751Y640D01*
X342Y639D02*
X391Y639D01*
X402Y639D02*
X452Y639D01*
X642Y639D02*
X691Y639D01*
X702Y639D02*
X752Y639D01*
X342Y638D02*
X390Y638D01*
X404Y638D02*
X452Y638D01*
X642Y638D02*
X690Y638D01*
X704Y638D02*
X752Y638D01*
X341Y637D02*
X389Y637D01*
X405Y637D02*
X452Y637D01*
X641Y637D02*
X689Y637D01*
X705Y637D02*
X752Y637D01*
X341Y636D02*
X388Y636D01*
X406Y636D02*
X452Y636D01*
X641Y636D02*
X688Y636D01*
X706Y636D02*
X752Y636D01*
X341Y635D02*
X387Y635D01*
X407Y635D02*
X453Y635D01*
X641Y635D02*
X687Y635D01*
X707Y635D02*
X753Y635D01*
X341Y634D02*
X386Y634D01*
X407Y634D02*
X453Y634D01*
X641Y634D02*
X686Y634D01*
X707Y634D02*
X753Y634D01*
X341Y633D02*
X386Y633D01*
X408Y633D02*
X453Y633D01*
X641Y633D02*
X686Y633D01*
X708Y633D02*
X753Y633D01*
X340Y632D02*
X386Y632D01*
X408Y632D02*
X453Y632D01*
X640Y632D02*
X686Y632D01*
X708Y632D02*
X753Y632D01*
X340Y631D02*
X385Y631D01*
X408Y631D02*
X453Y631D01*
X640Y631D02*
X685Y631D01*
X708Y631D02*
X753Y631D01*
X340Y630D02*
X385Y630D01*
X408Y630D02*
X453Y630D01*
X640Y630D02*
X685Y630D01*
X708Y630D02*
X753Y630D01*
X340Y629D02*
X385Y629D01*
X408Y629D02*
X453Y629D01*
X640Y629D02*
X685Y629D01*
X708Y629D02*
X753Y629D01*
X340Y628D02*
X385Y628D01*
X408Y628D02*
X453Y628D01*
X640Y628D02*
X685Y628D01*
X708Y628D02*
X753Y628D01*
X340Y627D02*
X386Y627D01*
X408Y627D02*
X453Y627D01*
X640Y627D02*
X685Y627D01*
X708Y627D02*
X753Y627D01*
X341Y626D02*
X386Y626D01*
X408Y626D02*
X453Y626D01*
X640Y626D02*
X686Y626D01*
X708Y626D02*
X753Y626D01*
X341Y625D02*
X386Y625D01*
X408Y625D02*
X453Y625D01*
X641Y625D02*
X686Y625D01*
X708Y625D02*
X753Y625D01*
X341Y624D02*
X387Y624D01*
X407Y624D02*
X453Y624D01*
X641Y624D02*
X687Y624D01*
X707Y624D02*
X753Y624D01*
X341Y623D02*
X387Y623D01*
X406Y623D02*
X453Y623D01*
X641Y623D02*
X687Y623D01*
X706Y623D02*
X753Y623D01*
X341Y622D02*
X388Y622D01*
X406Y622D02*
X452Y622D01*
X641Y622D02*
X688Y622D01*
X706Y622D02*
X752Y622D01*
X342Y621D02*
X389Y621D01*
X405Y621D02*
X452Y621D01*
X641Y621D02*
X689Y621D01*
X705Y621D02*
X752Y621D01*
X342Y620D02*
X390Y620D01*
X403Y620D02*
X452Y620D01*
X642Y620D02*
X690Y620D01*
X703Y620D02*
X752Y620D01*
X342Y619D02*
X392Y619D01*
X402Y619D02*
X451Y619D01*
X642Y619D02*
X692Y619D01*
X702Y619D02*
X751Y619D01*
X343Y618D02*
X451Y618D01*
X642Y618D02*
X751Y618D01*
X343Y617D02*
X451Y617D01*
X643Y617D02*
X751Y617D01*
X343Y616D02*
X450Y616D01*
X643Y616D02*
X750Y616D01*
X344Y615D02*
X450Y615D01*
X644Y615D02*
X750Y615D01*
X344Y614D02*
X449Y614D01*
X644Y614D02*
X749Y614D01*
X345Y613D02*
X449Y613D01*
X645Y613D02*
X749Y613D01*
X346Y612D02*
X448Y612D01*
X646Y612D02*
X748Y612D01*
X346Y611D02*
X447Y611D01*
X646Y611D02*
X747Y611D01*
X347Y610D02*
X447Y610D01*
X647Y610D02*
X747Y610D01*
X348Y609D02*
X446Y609D01*
X648Y609D02*
X746Y609D01*
X349Y608D02*
X445Y608D01*
X649Y608D02*
X745Y608D01*
X350Y607D02*
X444Y607D01*
X650Y607D02*
X744Y607D01*
X351Y606D02*
X443Y606D01*
X651Y606D02*
X743Y606D01*
X352Y605D02*
X442Y605D01*
X652Y605D02*
X742Y605D01*
X353Y604D02*
X440Y604D01*
X653Y604D02*
X740Y604D01*
X355Y603D02*
X439Y603D01*
X655Y603D02*
X739Y603D01*
X357Y602D02*
X437Y602D01*
X657Y602D02*
X737Y602D01*
X359Y601D02*
X435Y601D01*
X659Y601D02*
X735Y601D01*
X361Y600D02*
X433Y600D01*
X661Y600D02*
X732Y600D01*
X364Y599D02*
X429Y599D01*
X664Y599D02*
X729Y599D01*
X368Y560D02*
X425Y560D01*
X668Y560D02*
X725Y560D01*
X363Y559D02*
X430Y559D01*
X663Y559D02*
X730Y559D01*
X360Y558D02*
X433Y558D01*
X660Y558D02*
X733Y558D01*
X358Y557D02*
X436Y557D01*
X658Y557D02*
X736Y557D01*
X356Y556D02*
X438Y556D01*
X656Y556D02*
X738Y556D01*
X354Y555D02*
X439Y555D01*
X654Y555D02*
X739Y555D01*
X353Y554D02*
X441Y554D01*
X653Y554D02*
X741Y554D01*
X352Y553D02*
X442Y553D01*
X652Y553D02*
X742Y553D01*
X350Y552D02*
X443Y552D01*
X650Y552D02*
X743Y552D01*
X349Y551D02*
X444Y551D01*
X649Y551D02*
X744Y551D01*
X348Y550D02*
X445Y550D01*
X648Y550D02*
X745Y550D01*
X348Y549D02*
X446Y549D01*
X648Y549D02*
X746Y549D01*
X347Y548D02*
X447Y548D01*
X647Y548D02*
X747Y548D01*
X346Y547D02*
X448Y547D01*
X646Y547D02*
X748Y547D01*
X345Y546D02*
X448Y546D01*
X645Y546D02*
X748Y546D01*
X345Y545D02*
X449Y545D01*
X645Y545D02*
X749Y545D01*
X344Y544D02*
X449Y544D01*
X644Y544D02*
X749Y544D01*
X344Y543D02*
X450Y543D01*
X644Y543D02*
X750Y543D01*
X343Y542D02*
X450Y542D01*
X643Y542D02*
X750Y542D01*
X343Y541D02*
X451Y541D01*
X643Y541D02*
X751Y541D01*
X342Y540D02*
X394Y540D01*
X399Y540D02*
X451Y540D01*
X642Y540D02*
X694Y540D01*
X699Y540D02*
X751Y540D01*
X342Y539D02*
X391Y539D01*
X402Y539D02*
X452Y539D01*
X642Y539D02*
X691Y539D01*
X702Y539D02*
X752Y539D01*
X342Y538D02*
X390Y538D01*
X404Y538D02*
X452Y538D01*
X642Y538D02*
X690Y538D01*
X704Y538D02*
X752Y538D01*
X341Y537D02*
X389Y537D01*
X405Y537D02*
X452Y537D01*
X641Y537D02*
X689Y537D01*
X705Y537D02*
X752Y537D01*
X341Y536D02*
X388Y536D01*
X406Y536D02*
X452Y536D01*
X641Y536D02*
X688Y536D01*
X706Y536D02*
X752Y536D01*
X341Y535D02*
X387Y535D01*
X407Y535D02*
X453Y535D01*
X641Y535D02*
X687Y535D01*
X707Y535D02*
X753Y535D01*
X341Y534D02*
X386Y534D01*
X407Y534D02*
X453Y534D01*
X641Y534D02*
X686Y534D01*
X707Y534D02*
X753Y534D01*
X341Y533D02*
X386Y533D01*
X408Y533D02*
X453Y533D01*
X641Y533D02*
X686Y533D01*
X708Y533D02*
X753Y533D01*
X340Y532D02*
X386Y532D01*
X408Y532D02*
X453Y532D01*
X640Y532D02*
X686Y532D01*
X708Y532D02*
X753Y532D01*
X340Y531D02*
X385Y531D01*
X408Y531D02*
X453Y531D01*
X640Y531D02*
X685Y531D01*
X708Y531D02*
X753Y531D01*
X340Y530D02*
X385Y530D01*
X408Y530D02*
X453Y530D01*
X640Y530D02*
X685Y530D01*
X708Y530D02*
X753Y530D01*
X340Y529D02*
X385Y529D01*
X408Y529D02*
X453Y529D01*
X640Y529D02*
X685Y529D01*
X708Y529D02*
X753Y529D01*
X340Y528D02*
X385Y528D01*
X408Y528D02*
X453Y528D01*
X640Y528D02*
X685Y528D01*
X708Y528D02*
X753Y528D01*
X340Y527D02*
X386Y527D01*
X408Y527D02*
X453Y527D01*
X640Y527D02*
X685Y527D01*
X708Y527D02*
X753Y527D01*
X341Y526D02*
X386Y526D01*
X408Y526D02*
X453Y526D01*
X640Y526D02*
X686Y526D01*
X708Y526D02*
X753Y526D01*
X341Y525D02*
X386Y525D01*
X408Y525D02*
X453Y525D01*
X641Y525D02*
X686Y525D01*
X708Y525D02*
X753Y525D01*
X341Y524D02*
X387Y524D01*
X407Y524D02*
X453Y524D01*
X641Y524D02*
X687Y524D01*
X707Y524D02*
X753Y524D01*
X341Y523D02*
X387Y523D01*
X406Y523D02*
X453Y523D01*
X641Y523D02*
X687Y523D01*
X706Y523D02*
X753Y523D01*
X341Y522D02*
X388Y522D01*
X406Y522D02*
X452Y522D01*
X641Y522D02*
X688Y522D01*
X706Y522D02*
X752Y522D01*
X342Y521D02*
X389Y521D01*
X405Y521D02*
X452Y521D01*
X641Y521D02*
X689Y521D01*
X705Y521D02*
X752Y521D01*
X342Y520D02*
X390Y520D01*
X403Y520D02*
X452Y520D01*
X642Y520D02*
X690Y520D01*
X703Y520D02*
X752Y520D01*
X342Y519D02*
X392Y519D01*
X402Y519D02*
X451Y519D01*
X642Y519D02*
X692Y519D01*
X702Y519D02*
X751Y519D01*
X343Y518D02*
X451Y518D01*
X642Y518D02*
X751Y518D01*
X343Y517D02*
X451Y517D01*
X643Y517D02*
X751Y517D01*
X343Y516D02*
X450Y516D01*
X643Y516D02*
X750Y516D01*
X344Y515D02*
X450Y515D01*
X644Y515D02*
X750Y515D01*
X344Y514D02*
X449Y514D01*
X644Y514D02*
X749Y514D01*
X345Y513D02*
X449Y513D01*
X645Y513D02*
X749Y513D01*
X346Y512D02*
X448Y512D01*
X646Y512D02*
X748Y512D01*
X346Y511D02*
X447Y511D01*
X646Y511D02*
X747Y511D01*
X347Y510D02*
X447Y510D01*
X647Y510D02*
X747Y510D01*
X348Y509D02*
X446Y509D01*
X648Y509D02*
X746Y509D01*
X349Y508D02*
X445Y508D01*
X649Y508D02*
X745Y508D01*
X350Y507D02*
X444Y507D01*
X650Y507D02*
X744Y507D01*
X351Y506D02*
X443Y506D01*
X651Y506D02*
X743Y506D01*
X352Y505D02*
X442Y505D01*
X652Y505D02*
X742Y505D01*
X353Y504D02*
X440Y504D01*
X653Y504D02*
X740Y504D01*
X355Y503D02*
X439Y503D01*
X655Y503D02*
X739Y503D01*
X357Y502D02*
X437Y502D01*
X657Y502D02*
X737Y502D01*
X359Y501D02*
X435Y501D01*
X659Y501D02*
X735Y501D01*
X361Y500D02*
X432Y500D01*
X661Y500D02*
X732Y500D01*
X365Y499D02*
X429Y499D01*
X664Y499D02*
X729Y499D01*
D02*
G04 End of Mask1*
M02*