; NON-PLATED HOLES START AT T1
; THROUGH (PLATED) HOLES START AT T100
M48
INCH
T100C0.035000
T101C0.032000
T102C0.030000
T103C0.031497
%
T100
X012973Y010287
X024973Y013287
X017201Y016727
X020973Y010287
X011973Y016287
X015973Y010287
X009973Y019287
X020973Y007287
X020973Y013287
X018973Y016727
X024973Y004287
X012973Y009287
X015973Y009287
X010973Y019287
X024973Y007287
X009973Y016287
X009973Y012287
X015973Y007287
X024973Y010287
X015973Y008287
X017201Y019287
X011973Y012287
X012973Y008287
X020973Y004287
X018973Y019287
X012973Y007287
T101
X006973Y011287
X003973Y007287
X006973Y006287
X003973Y010287
X006973Y008287
X006973Y009287
X006973Y007287
X003973Y011287
X003973Y008287
X006973Y010287
X003973Y005287
X003973Y009287
X006973Y005287
X003973Y006287
T102
X010975Y003287
X009973Y003287
T103
X028973Y007302
X028973Y011271
X028973Y013287
X028973Y008287
X028973Y010287
X028973Y014271
X028973Y005271
X028973Y004287
T00
M30
