G04 MADE WITH FRITZING*
G04 WWW.FRITZING.ORG*
G04 DOUBLE SIDED*
G04 HOLES PLATED*
G04 CONTOUR ON CENTER OF CONTOUR VECTOR*
%ASAXBY*%
%FSLAX23Y23*%
%MOIN*%
%OFA0B0*%
%SFA1.0B1.0*%
%ADD10C,0.075000*%
%ADD11C,0.070000*%
%ADD12C,0.062992*%
%ADD13C,0.052000*%
%ADD14R,0.075000X0.075000*%
%ADD15R,0.062992X0.062992*%
%ADD16C,0.024000*%
%ADD17R,0.001000X0.001000*%
%LNCOPPER1*%
G90*
G70*
G54D10*
X1197Y1629D03*
X1197Y1229D03*
X997Y1629D03*
X997Y1229D03*
X1097Y1929D03*
X997Y1929D03*
G54D11*
X997Y329D03*
X1098Y329D03*
G54D10*
X1297Y1029D03*
X1597Y1029D03*
X1297Y929D03*
X1597Y929D03*
X1297Y829D03*
X1597Y829D03*
X1297Y729D03*
X1597Y729D03*
G54D12*
X2897Y1329D03*
X2897Y1427D03*
X2897Y730D03*
X2897Y829D03*
X2897Y1029D03*
X2897Y1127D03*
X2897Y429D03*
X2897Y527D03*
G54D10*
X1720Y1673D03*
X1720Y1929D03*
X1897Y1673D03*
X1897Y1929D03*
X2097Y1029D03*
X2497Y1029D03*
X2097Y729D03*
X2497Y729D03*
X2097Y1329D03*
X2497Y1329D03*
X2097Y429D03*
X2497Y429D03*
G54D13*
X397Y1129D03*
X397Y1029D03*
X397Y929D03*
X397Y829D03*
X397Y729D03*
X397Y629D03*
X397Y529D03*
X697Y529D03*
X697Y629D03*
X697Y729D03*
X697Y829D03*
X697Y929D03*
X697Y1029D03*
X697Y1129D03*
X397Y1129D03*
X397Y1029D03*
X397Y929D03*
X397Y829D03*
X397Y729D03*
X397Y629D03*
X397Y529D03*
X697Y529D03*
X697Y629D03*
X697Y729D03*
X697Y829D03*
X697Y929D03*
X697Y1029D03*
X697Y1129D03*
G54D14*
X1097Y1929D03*
X1297Y1029D03*
G54D15*
X2897Y1329D03*
X2897Y730D03*
X2897Y1029D03*
X2897Y429D03*
G54D16*
X2871Y429D02*
X2526Y429D01*
D02*
X2871Y730D02*
X2526Y729D01*
D02*
X2871Y1029D02*
X2526Y1029D01*
D02*
X2871Y1329D02*
X2526Y1329D01*
D02*
X3099Y627D02*
X2921Y539D01*
D02*
X3099Y829D02*
X3099Y627D01*
D02*
X2924Y829D02*
X3099Y829D01*
D02*
X3099Y1028D02*
X2916Y848D01*
D02*
X2924Y1127D02*
X3099Y1127D01*
D02*
X3099Y1127D02*
X3099Y1028D01*
D02*
X1925Y1666D02*
X2871Y1434D01*
D02*
X1297Y2127D02*
X1797Y2127D01*
D02*
X1797Y2127D02*
X1884Y1954D01*
D02*
X1118Y1949D02*
X1297Y2127D01*
D02*
X499Y329D02*
X410Y505D01*
D02*
X971Y329D02*
X499Y329D01*
D02*
X1598Y329D02*
X1023Y329D01*
D02*
X2917Y508D02*
X3099Y329D01*
D02*
X3099Y329D02*
X1598Y329D01*
D02*
X1521Y592D02*
X1598Y527D01*
D02*
X1598Y527D02*
X2069Y434D01*
D02*
X1317Y808D02*
X1521Y592D01*
D02*
X424Y926D02*
X1269Y832D01*
D02*
X1318Y949D02*
X1499Y1127D01*
D02*
X1499Y1127D02*
X1297Y1528D01*
D02*
X1297Y1528D02*
X1217Y1608D01*
D02*
X998Y1900D02*
X999Y1627D01*
D02*
X999Y1627D02*
X1018Y1608D01*
D02*
X999Y1230D02*
X723Y1137D01*
D02*
X1018Y1249D02*
X999Y1230D01*
D02*
X1197Y1230D02*
X1026Y1229D01*
D02*
X1197Y1257D02*
X1197Y1230D01*
D02*
X1896Y1330D02*
X1396Y1830D01*
D02*
X1598Y928D02*
X1896Y1330D01*
D02*
X1396Y1830D02*
X1023Y1642D01*
D02*
X1625Y923D02*
X1598Y928D01*
D02*
X1597Y900D02*
X1597Y857D01*
D02*
X1896Y1127D02*
X1896Y627D01*
D02*
X1896Y627D02*
X2077Y449D01*
D02*
X2077Y1308D02*
X1896Y1127D01*
D02*
X2922Y1415D02*
X3099Y1330D01*
D02*
X3099Y1330D02*
X3099Y1230D01*
D02*
X3099Y1230D02*
X2921Y1139D01*
G54D17*
X369Y1155D02*
X424Y1155D01*
X669Y1155D02*
X724Y1155D01*
X364Y1154D02*
X430Y1154D01*
X664Y1154D02*
X730Y1154D01*
X361Y1153D02*
X433Y1153D01*
X661Y1153D02*
X732Y1153D01*
X359Y1152D02*
X434Y1152D01*
X659Y1152D02*
X734Y1152D01*
X357Y1151D02*
X436Y1151D01*
X657Y1151D02*
X736Y1151D01*
X356Y1150D02*
X438Y1150D01*
X656Y1150D02*
X738Y1150D01*
X355Y1149D02*
X439Y1149D01*
X655Y1149D02*
X739Y1149D01*
X354Y1148D02*
X440Y1148D01*
X654Y1148D02*
X740Y1148D01*
X353Y1147D02*
X441Y1147D01*
X653Y1147D02*
X741Y1147D01*
X352Y1146D02*
X442Y1146D01*
X652Y1146D02*
X742Y1146D01*
X351Y1145D02*
X395Y1145D01*
X398Y1145D02*
X443Y1145D01*
X651Y1145D02*
X695Y1145D01*
X698Y1145D02*
X743Y1145D01*
X350Y1144D02*
X391Y1144D01*
X403Y1144D02*
X444Y1144D01*
X650Y1144D02*
X691Y1144D01*
X703Y1144D02*
X744Y1144D01*
X349Y1143D02*
X389Y1143D01*
X405Y1143D02*
X444Y1143D01*
X649Y1143D02*
X689Y1143D01*
X705Y1143D02*
X744Y1143D01*
X349Y1142D02*
X387Y1142D01*
X407Y1142D02*
X445Y1142D01*
X649Y1142D02*
X687Y1142D01*
X707Y1142D02*
X745Y1142D01*
X348Y1141D02*
X386Y1141D01*
X408Y1141D02*
X445Y1141D01*
X648Y1141D02*
X686Y1141D01*
X708Y1141D02*
X745Y1141D01*
X348Y1140D02*
X385Y1140D01*
X409Y1140D02*
X446Y1140D01*
X648Y1140D02*
X685Y1140D01*
X709Y1140D02*
X746Y1140D01*
X347Y1139D02*
X384Y1139D01*
X410Y1139D02*
X446Y1139D01*
X647Y1139D02*
X684Y1139D01*
X710Y1139D02*
X746Y1139D01*
X347Y1138D02*
X383Y1138D01*
X411Y1138D02*
X447Y1138D01*
X647Y1138D02*
X683Y1138D01*
X711Y1138D02*
X747Y1138D01*
X347Y1137D02*
X382Y1137D01*
X411Y1137D02*
X447Y1137D01*
X647Y1137D02*
X682Y1137D01*
X711Y1137D02*
X747Y1137D01*
X346Y1136D02*
X382Y1136D01*
X412Y1136D02*
X447Y1136D01*
X646Y1136D02*
X682Y1136D01*
X712Y1136D02*
X747Y1136D01*
X346Y1135D02*
X381Y1135D01*
X412Y1135D02*
X448Y1135D01*
X646Y1135D02*
X681Y1135D01*
X712Y1135D02*
X748Y1135D01*
X346Y1134D02*
X381Y1134D01*
X412Y1134D02*
X448Y1134D01*
X646Y1134D02*
X681Y1134D01*
X712Y1134D02*
X748Y1134D01*
X346Y1133D02*
X381Y1133D01*
X413Y1133D02*
X448Y1133D01*
X646Y1133D02*
X681Y1133D01*
X713Y1133D02*
X748Y1133D01*
X345Y1132D02*
X381Y1132D01*
X413Y1132D02*
X448Y1132D01*
X645Y1132D02*
X681Y1132D01*
X713Y1132D02*
X748Y1132D01*
X345Y1131D02*
X381Y1131D01*
X413Y1131D02*
X448Y1131D01*
X645Y1131D02*
X680Y1131D01*
X713Y1131D02*
X748Y1131D01*
X345Y1130D02*
X380Y1130D01*
X413Y1130D02*
X448Y1130D01*
X645Y1130D02*
X680Y1130D01*
X713Y1130D02*
X748Y1130D01*
X345Y1129D02*
X380Y1129D01*
X413Y1129D02*
X448Y1129D01*
X645Y1129D02*
X680Y1129D01*
X713Y1129D02*
X748Y1129D01*
X345Y1128D02*
X380Y1128D01*
X413Y1128D02*
X448Y1128D01*
X645Y1128D02*
X680Y1128D01*
X713Y1128D02*
X748Y1128D01*
X345Y1127D02*
X381Y1127D01*
X413Y1127D02*
X448Y1127D01*
X645Y1127D02*
X681Y1127D01*
X713Y1127D02*
X748Y1127D01*
X346Y1126D02*
X381Y1126D01*
X413Y1126D02*
X448Y1126D01*
X645Y1126D02*
X681Y1126D01*
X713Y1126D02*
X748Y1126D01*
X346Y1125D02*
X381Y1125D01*
X413Y1125D02*
X448Y1125D01*
X646Y1125D02*
X681Y1125D01*
X713Y1125D02*
X748Y1125D01*
X346Y1124D02*
X381Y1124D01*
X412Y1124D02*
X448Y1124D01*
X646Y1124D02*
X681Y1124D01*
X712Y1124D02*
X748Y1124D01*
X346Y1123D02*
X382Y1123D01*
X412Y1123D02*
X448Y1123D01*
X646Y1123D02*
X682Y1123D01*
X712Y1123D02*
X748Y1123D01*
X346Y1122D02*
X382Y1122D01*
X412Y1122D02*
X447Y1122D01*
X646Y1122D02*
X682Y1122D01*
X712Y1122D02*
X747Y1122D01*
X347Y1121D02*
X383Y1121D01*
X411Y1121D02*
X447Y1121D01*
X647Y1121D02*
X683Y1121D01*
X711Y1121D02*
X747Y1121D01*
X347Y1120D02*
X383Y1120D01*
X410Y1120D02*
X447Y1120D01*
X647Y1120D02*
X683Y1120D01*
X710Y1120D02*
X747Y1120D01*
X347Y1119D02*
X384Y1119D01*
X410Y1119D02*
X446Y1119D01*
X647Y1119D02*
X684Y1119D01*
X710Y1119D02*
X746Y1119D01*
X348Y1118D02*
X385Y1118D01*
X409Y1118D02*
X446Y1118D01*
X648Y1118D02*
X685Y1118D01*
X709Y1118D02*
X746Y1118D01*
X348Y1117D02*
X386Y1117D01*
X408Y1117D02*
X445Y1117D01*
X648Y1117D02*
X686Y1117D01*
X708Y1117D02*
X745Y1117D01*
X349Y1116D02*
X387Y1116D01*
X406Y1116D02*
X445Y1116D01*
X649Y1116D02*
X687Y1116D01*
X706Y1116D02*
X745Y1116D01*
X350Y1115D02*
X389Y1115D01*
X405Y1115D02*
X444Y1115D01*
X649Y1115D02*
X689Y1115D01*
X705Y1115D02*
X744Y1115D01*
X350Y1114D02*
X391Y1114D01*
X402Y1114D02*
X443Y1114D01*
X650Y1114D02*
X691Y1114D01*
X702Y1114D02*
X743Y1114D01*
X351Y1113D02*
X443Y1113D01*
X651Y1113D02*
X743Y1113D01*
X352Y1112D02*
X442Y1112D01*
X652Y1112D02*
X742Y1112D01*
X353Y1111D02*
X441Y1111D01*
X653Y1111D02*
X741Y1111D01*
X354Y1110D02*
X440Y1110D01*
X654Y1110D02*
X740Y1110D01*
X355Y1109D02*
X439Y1109D01*
X655Y1109D02*
X739Y1109D01*
X356Y1108D02*
X437Y1108D01*
X656Y1108D02*
X737Y1108D01*
X358Y1107D02*
X436Y1107D01*
X658Y1107D02*
X736Y1107D01*
X360Y1106D02*
X434Y1106D01*
X660Y1106D02*
X734Y1106D01*
X362Y1105D02*
X432Y1105D01*
X662Y1105D02*
X732Y1105D01*
X365Y1104D02*
X429Y1104D01*
X665Y1104D02*
X729Y1104D01*
X369Y1055D02*
X424Y1055D01*
X669Y1055D02*
X724Y1055D01*
X364Y1054D02*
X430Y1054D01*
X664Y1054D02*
X730Y1054D01*
X361Y1053D02*
X433Y1053D01*
X661Y1053D02*
X733Y1053D01*
X359Y1052D02*
X434Y1052D01*
X659Y1052D02*
X734Y1052D01*
X357Y1051D02*
X436Y1051D01*
X657Y1051D02*
X736Y1051D01*
X356Y1050D02*
X438Y1050D01*
X656Y1050D02*
X738Y1050D01*
X355Y1049D02*
X439Y1049D01*
X655Y1049D02*
X739Y1049D01*
X354Y1048D02*
X440Y1048D01*
X654Y1048D02*
X740Y1048D01*
X353Y1047D02*
X441Y1047D01*
X653Y1047D02*
X741Y1047D01*
X352Y1046D02*
X442Y1046D01*
X652Y1046D02*
X742Y1046D01*
X351Y1045D02*
X395Y1045D01*
X398Y1045D02*
X443Y1045D01*
X651Y1045D02*
X695Y1045D01*
X698Y1045D02*
X743Y1045D01*
X350Y1044D02*
X391Y1044D01*
X403Y1044D02*
X444Y1044D01*
X650Y1044D02*
X691Y1044D01*
X703Y1044D02*
X744Y1044D01*
X349Y1043D02*
X389Y1043D01*
X405Y1043D02*
X444Y1043D01*
X649Y1043D02*
X689Y1043D01*
X705Y1043D02*
X744Y1043D01*
X349Y1042D02*
X387Y1042D01*
X407Y1042D02*
X445Y1042D01*
X649Y1042D02*
X687Y1042D01*
X707Y1042D02*
X745Y1042D01*
X348Y1041D02*
X386Y1041D01*
X408Y1041D02*
X445Y1041D01*
X648Y1041D02*
X686Y1041D01*
X708Y1041D02*
X745Y1041D01*
X348Y1040D02*
X385Y1040D01*
X409Y1040D02*
X446Y1040D01*
X648Y1040D02*
X685Y1040D01*
X709Y1040D02*
X746Y1040D01*
X347Y1039D02*
X384Y1039D01*
X410Y1039D02*
X446Y1039D01*
X647Y1039D02*
X684Y1039D01*
X710Y1039D02*
X746Y1039D01*
X347Y1038D02*
X383Y1038D01*
X411Y1038D02*
X447Y1038D01*
X647Y1038D02*
X683Y1038D01*
X711Y1038D02*
X747Y1038D01*
X347Y1037D02*
X382Y1037D01*
X411Y1037D02*
X447Y1037D01*
X647Y1037D02*
X682Y1037D01*
X711Y1037D02*
X747Y1037D01*
X346Y1036D02*
X382Y1036D01*
X412Y1036D02*
X447Y1036D01*
X646Y1036D02*
X682Y1036D01*
X712Y1036D02*
X747Y1036D01*
X346Y1035D02*
X381Y1035D01*
X412Y1035D02*
X448Y1035D01*
X646Y1035D02*
X681Y1035D01*
X712Y1035D02*
X748Y1035D01*
X346Y1034D02*
X381Y1034D01*
X412Y1034D02*
X448Y1034D01*
X646Y1034D02*
X681Y1034D01*
X712Y1034D02*
X748Y1034D01*
X346Y1033D02*
X381Y1033D01*
X413Y1033D02*
X448Y1033D01*
X646Y1033D02*
X681Y1033D01*
X713Y1033D02*
X748Y1033D01*
X345Y1032D02*
X381Y1032D01*
X413Y1032D02*
X448Y1032D01*
X645Y1032D02*
X681Y1032D01*
X713Y1032D02*
X748Y1032D01*
X345Y1031D02*
X381Y1031D01*
X413Y1031D02*
X448Y1031D01*
X645Y1031D02*
X680Y1031D01*
X713Y1031D02*
X748Y1031D01*
X345Y1030D02*
X380Y1030D01*
X413Y1030D02*
X448Y1030D01*
X645Y1030D02*
X680Y1030D01*
X713Y1030D02*
X748Y1030D01*
X345Y1029D02*
X380Y1029D01*
X413Y1029D02*
X448Y1029D01*
X645Y1029D02*
X680Y1029D01*
X713Y1029D02*
X748Y1029D01*
X345Y1028D02*
X380Y1028D01*
X413Y1028D02*
X448Y1028D01*
X645Y1028D02*
X680Y1028D01*
X713Y1028D02*
X748Y1028D01*
X345Y1027D02*
X381Y1027D01*
X413Y1027D02*
X448Y1027D01*
X645Y1027D02*
X681Y1027D01*
X713Y1027D02*
X748Y1027D01*
X346Y1026D02*
X381Y1026D01*
X413Y1026D02*
X448Y1026D01*
X645Y1026D02*
X681Y1026D01*
X713Y1026D02*
X748Y1026D01*
X346Y1025D02*
X381Y1025D01*
X413Y1025D02*
X448Y1025D01*
X646Y1025D02*
X681Y1025D01*
X713Y1025D02*
X748Y1025D01*
X346Y1024D02*
X381Y1024D01*
X412Y1024D02*
X448Y1024D01*
X646Y1024D02*
X681Y1024D01*
X712Y1024D02*
X748Y1024D01*
X346Y1023D02*
X382Y1023D01*
X412Y1023D02*
X448Y1023D01*
X646Y1023D02*
X682Y1023D01*
X712Y1023D02*
X748Y1023D01*
X346Y1022D02*
X382Y1022D01*
X412Y1022D02*
X447Y1022D01*
X646Y1022D02*
X682Y1022D01*
X712Y1022D02*
X747Y1022D01*
X347Y1021D02*
X383Y1021D01*
X411Y1021D02*
X447Y1021D01*
X647Y1021D02*
X683Y1021D01*
X711Y1021D02*
X747Y1021D01*
X347Y1020D02*
X383Y1020D01*
X410Y1020D02*
X447Y1020D01*
X647Y1020D02*
X683Y1020D01*
X710Y1020D02*
X747Y1020D01*
X347Y1019D02*
X384Y1019D01*
X410Y1019D02*
X446Y1019D01*
X647Y1019D02*
X684Y1019D01*
X710Y1019D02*
X746Y1019D01*
X348Y1018D02*
X385Y1018D01*
X409Y1018D02*
X446Y1018D01*
X648Y1018D02*
X685Y1018D01*
X709Y1018D02*
X746Y1018D01*
X348Y1017D02*
X386Y1017D01*
X408Y1017D02*
X445Y1017D01*
X648Y1017D02*
X686Y1017D01*
X708Y1017D02*
X745Y1017D01*
X349Y1016D02*
X387Y1016D01*
X406Y1016D02*
X445Y1016D01*
X649Y1016D02*
X687Y1016D01*
X706Y1016D02*
X745Y1016D01*
X350Y1015D02*
X389Y1015D01*
X405Y1015D02*
X444Y1015D01*
X650Y1015D02*
X689Y1015D01*
X705Y1015D02*
X744Y1015D01*
X350Y1014D02*
X391Y1014D01*
X402Y1014D02*
X443Y1014D01*
X650Y1014D02*
X691Y1014D01*
X702Y1014D02*
X743Y1014D01*
X351Y1013D02*
X443Y1013D01*
X651Y1013D02*
X743Y1013D01*
X352Y1012D02*
X442Y1012D01*
X652Y1012D02*
X742Y1012D01*
X353Y1011D02*
X441Y1011D01*
X653Y1011D02*
X741Y1011D01*
X354Y1010D02*
X440Y1010D01*
X654Y1010D02*
X740Y1010D01*
X355Y1009D02*
X439Y1009D01*
X655Y1009D02*
X739Y1009D01*
X356Y1008D02*
X437Y1008D01*
X656Y1008D02*
X737Y1008D01*
X358Y1007D02*
X436Y1007D01*
X658Y1007D02*
X736Y1007D01*
X360Y1006D02*
X434Y1006D01*
X660Y1006D02*
X734Y1006D01*
X362Y1005D02*
X432Y1005D01*
X662Y1005D02*
X732Y1005D01*
X365Y1004D02*
X429Y1004D01*
X665Y1004D02*
X729Y1004D01*
X369Y955D02*
X425Y955D01*
X669Y955D02*
X725Y955D01*
X364Y954D02*
X430Y954D01*
X664Y954D02*
X730Y954D01*
X361Y953D02*
X433Y953D01*
X661Y953D02*
X733Y953D01*
X359Y952D02*
X434Y952D01*
X659Y952D02*
X734Y952D01*
X357Y951D02*
X436Y951D01*
X657Y951D02*
X736Y951D01*
X356Y950D02*
X438Y950D01*
X656Y950D02*
X738Y950D01*
X355Y949D02*
X439Y949D01*
X655Y949D02*
X739Y949D01*
X354Y948D02*
X440Y948D01*
X654Y948D02*
X740Y948D01*
X353Y947D02*
X441Y947D01*
X652Y947D02*
X741Y947D01*
X352Y946D02*
X442Y946D01*
X652Y946D02*
X742Y946D01*
X351Y945D02*
X395Y945D01*
X398Y945D02*
X443Y945D01*
X651Y945D02*
X695Y945D01*
X698Y945D02*
X743Y945D01*
X350Y944D02*
X391Y944D01*
X403Y944D02*
X444Y944D01*
X650Y944D02*
X691Y944D01*
X703Y944D02*
X744Y944D01*
X349Y943D02*
X389Y943D01*
X405Y943D02*
X444Y943D01*
X649Y943D02*
X688Y943D01*
X705Y943D02*
X744Y943D01*
X349Y942D02*
X387Y942D01*
X407Y942D02*
X445Y942D01*
X649Y942D02*
X687Y942D01*
X707Y942D02*
X745Y942D01*
X348Y941D02*
X386Y941D01*
X408Y941D02*
X445Y941D01*
X648Y941D02*
X686Y941D01*
X708Y941D02*
X745Y941D01*
X348Y940D02*
X385Y940D01*
X409Y940D02*
X446Y940D01*
X648Y940D02*
X685Y940D01*
X709Y940D02*
X746Y940D01*
X347Y939D02*
X384Y939D01*
X410Y939D02*
X446Y939D01*
X647Y939D02*
X684Y939D01*
X710Y939D02*
X746Y939D01*
X347Y938D02*
X383Y938D01*
X411Y938D02*
X447Y938D01*
X647Y938D02*
X683Y938D01*
X711Y938D02*
X747Y938D01*
X347Y937D02*
X382Y937D01*
X411Y937D02*
X447Y937D01*
X647Y937D02*
X682Y937D01*
X711Y937D02*
X747Y937D01*
X346Y936D02*
X382Y936D01*
X412Y936D02*
X447Y936D01*
X646Y936D02*
X682Y936D01*
X712Y936D02*
X747Y936D01*
X346Y935D02*
X381Y935D01*
X412Y935D02*
X448Y935D01*
X646Y935D02*
X681Y935D01*
X712Y935D02*
X748Y935D01*
X346Y934D02*
X381Y934D01*
X412Y934D02*
X448Y934D01*
X646Y934D02*
X681Y934D01*
X712Y934D02*
X748Y934D01*
X346Y933D02*
X381Y933D01*
X413Y933D02*
X448Y933D01*
X646Y933D02*
X681Y933D01*
X713Y933D02*
X748Y933D01*
X345Y932D02*
X381Y932D01*
X413Y932D02*
X448Y932D01*
X645Y932D02*
X681Y932D01*
X713Y932D02*
X748Y932D01*
X345Y931D02*
X381Y931D01*
X413Y931D02*
X448Y931D01*
X645Y931D02*
X680Y931D01*
X713Y931D02*
X748Y931D01*
X345Y930D02*
X380Y930D01*
X413Y930D02*
X448Y930D01*
X645Y930D02*
X680Y930D01*
X713Y930D02*
X748Y930D01*
X345Y929D02*
X380Y929D01*
X413Y929D02*
X448Y929D01*
X645Y929D02*
X680Y929D01*
X713Y929D02*
X748Y929D01*
X345Y928D02*
X380Y928D01*
X413Y928D02*
X448Y928D01*
X645Y928D02*
X680Y928D01*
X713Y928D02*
X748Y928D01*
X345Y927D02*
X381Y927D01*
X413Y927D02*
X448Y927D01*
X645Y927D02*
X681Y927D01*
X713Y927D02*
X748Y927D01*
X346Y926D02*
X381Y926D01*
X413Y926D02*
X448Y926D01*
X645Y926D02*
X681Y926D01*
X713Y926D02*
X748Y926D01*
X346Y925D02*
X381Y925D01*
X413Y925D02*
X448Y925D01*
X646Y925D02*
X681Y925D01*
X713Y925D02*
X748Y925D01*
X346Y924D02*
X381Y924D01*
X412Y924D02*
X448Y924D01*
X646Y924D02*
X681Y924D01*
X712Y924D02*
X748Y924D01*
X346Y923D02*
X382Y923D01*
X412Y923D02*
X448Y923D01*
X646Y923D02*
X682Y923D01*
X712Y923D02*
X748Y923D01*
X346Y922D02*
X382Y922D01*
X412Y922D02*
X447Y922D01*
X646Y922D02*
X682Y922D01*
X712Y922D02*
X747Y922D01*
X347Y921D02*
X383Y921D01*
X411Y921D02*
X447Y921D01*
X647Y921D02*
X683Y921D01*
X711Y921D02*
X747Y921D01*
X347Y920D02*
X383Y920D01*
X410Y920D02*
X447Y920D01*
X647Y920D02*
X683Y920D01*
X710Y920D02*
X747Y920D01*
X347Y919D02*
X384Y919D01*
X410Y919D02*
X446Y919D01*
X647Y919D02*
X684Y919D01*
X710Y919D02*
X746Y919D01*
X348Y918D02*
X385Y918D01*
X409Y918D02*
X446Y918D01*
X648Y918D02*
X685Y918D01*
X709Y918D02*
X746Y918D01*
X348Y917D02*
X386Y917D01*
X408Y917D02*
X445Y917D01*
X648Y917D02*
X686Y917D01*
X708Y917D02*
X745Y917D01*
X349Y916D02*
X387Y916D01*
X406Y916D02*
X445Y916D01*
X649Y916D02*
X687Y916D01*
X706Y916D02*
X745Y916D01*
X350Y915D02*
X389Y915D01*
X405Y915D02*
X444Y915D01*
X650Y915D02*
X689Y915D01*
X705Y915D02*
X744Y915D01*
X350Y914D02*
X391Y914D01*
X402Y914D02*
X443Y914D01*
X650Y914D02*
X691Y914D01*
X702Y914D02*
X743Y914D01*
X351Y913D02*
X443Y913D01*
X651Y913D02*
X743Y913D01*
X352Y912D02*
X442Y912D01*
X652Y912D02*
X742Y912D01*
X353Y911D02*
X441Y911D01*
X653Y911D02*
X741Y911D01*
X354Y910D02*
X440Y910D01*
X654Y910D02*
X740Y910D01*
X355Y909D02*
X439Y909D01*
X655Y909D02*
X739Y909D01*
X356Y908D02*
X437Y908D01*
X656Y908D02*
X737Y908D01*
X358Y907D02*
X436Y907D01*
X658Y907D02*
X736Y907D01*
X360Y906D02*
X434Y906D01*
X660Y906D02*
X734Y906D01*
X362Y905D02*
X432Y905D01*
X662Y905D02*
X732Y905D01*
X365Y904D02*
X429Y904D01*
X665Y904D02*
X729Y904D01*
X369Y855D02*
X425Y855D01*
X669Y855D02*
X725Y855D01*
X364Y854D02*
X430Y854D01*
X664Y854D02*
X730Y854D01*
X361Y853D02*
X433Y853D01*
X661Y853D02*
X733Y853D01*
X359Y852D02*
X434Y852D01*
X659Y852D02*
X734Y852D01*
X357Y851D02*
X436Y851D01*
X657Y851D02*
X736Y851D01*
X356Y850D02*
X438Y850D01*
X656Y850D02*
X738Y850D01*
X355Y849D02*
X439Y849D01*
X655Y849D02*
X739Y849D01*
X354Y848D02*
X440Y848D01*
X653Y848D02*
X740Y848D01*
X353Y847D02*
X441Y847D01*
X652Y847D02*
X741Y847D01*
X352Y846D02*
X442Y846D01*
X652Y846D02*
X742Y846D01*
X351Y845D02*
X395Y845D01*
X399Y845D02*
X443Y845D01*
X651Y845D02*
X695Y845D01*
X699Y845D02*
X743Y845D01*
X350Y844D02*
X391Y844D01*
X403Y844D02*
X444Y844D01*
X650Y844D02*
X690Y844D01*
X703Y844D02*
X744Y844D01*
X349Y843D02*
X388Y843D01*
X405Y843D02*
X444Y843D01*
X649Y843D02*
X688Y843D01*
X705Y843D02*
X744Y843D01*
X349Y842D02*
X387Y842D01*
X407Y842D02*
X445Y842D01*
X649Y842D02*
X687Y842D01*
X707Y842D02*
X745Y842D01*
X348Y841D02*
X386Y841D01*
X408Y841D02*
X445Y841D01*
X648Y841D02*
X686Y841D01*
X708Y841D02*
X745Y841D01*
X348Y840D02*
X385Y840D01*
X409Y840D02*
X446Y840D01*
X648Y840D02*
X685Y840D01*
X709Y840D02*
X746Y840D01*
X347Y839D02*
X384Y839D01*
X410Y839D02*
X446Y839D01*
X647Y839D02*
X684Y839D01*
X710Y839D02*
X746Y839D01*
X347Y838D02*
X383Y838D01*
X411Y838D02*
X447Y838D01*
X647Y838D02*
X683Y838D01*
X711Y838D02*
X747Y838D01*
X347Y837D02*
X382Y837D01*
X411Y837D02*
X447Y837D01*
X647Y837D02*
X682Y837D01*
X711Y837D02*
X747Y837D01*
X346Y836D02*
X382Y836D01*
X412Y836D02*
X447Y836D01*
X646Y836D02*
X682Y836D01*
X712Y836D02*
X747Y836D01*
X346Y835D02*
X381Y835D01*
X412Y835D02*
X448Y835D01*
X646Y835D02*
X681Y835D01*
X712Y835D02*
X748Y835D01*
X346Y834D02*
X381Y834D01*
X412Y834D02*
X448Y834D01*
X646Y834D02*
X681Y834D01*
X712Y834D02*
X748Y834D01*
X346Y833D02*
X381Y833D01*
X413Y833D02*
X448Y833D01*
X646Y833D02*
X681Y833D01*
X713Y833D02*
X748Y833D01*
X345Y832D02*
X381Y832D01*
X413Y832D02*
X448Y832D01*
X645Y832D02*
X681Y832D01*
X713Y832D02*
X748Y832D01*
X345Y831D02*
X381Y831D01*
X413Y831D02*
X448Y831D01*
X645Y831D02*
X680Y831D01*
X713Y831D02*
X748Y831D01*
X345Y830D02*
X380Y830D01*
X413Y830D02*
X448Y830D01*
X645Y830D02*
X680Y830D01*
X713Y830D02*
X748Y830D01*
X345Y829D02*
X380Y829D01*
X413Y829D02*
X448Y829D01*
X645Y829D02*
X680Y829D01*
X713Y829D02*
X748Y829D01*
X345Y828D02*
X380Y828D01*
X413Y828D02*
X448Y828D01*
X645Y828D02*
X680Y828D01*
X713Y828D02*
X748Y828D01*
X345Y827D02*
X381Y827D01*
X413Y827D02*
X448Y827D01*
X645Y827D02*
X681Y827D01*
X713Y827D02*
X748Y827D01*
X346Y826D02*
X381Y826D01*
X413Y826D02*
X448Y826D01*
X645Y826D02*
X681Y826D01*
X713Y826D02*
X748Y826D01*
X346Y825D02*
X381Y825D01*
X413Y825D02*
X448Y825D01*
X646Y825D02*
X681Y825D01*
X713Y825D02*
X748Y825D01*
X346Y824D02*
X381Y824D01*
X412Y824D02*
X448Y824D01*
X646Y824D02*
X681Y824D01*
X712Y824D02*
X748Y824D01*
X346Y823D02*
X382Y823D01*
X412Y823D02*
X448Y823D01*
X646Y823D02*
X682Y823D01*
X712Y823D02*
X748Y823D01*
X346Y822D02*
X382Y822D01*
X412Y822D02*
X447Y822D01*
X646Y822D02*
X682Y822D01*
X712Y822D02*
X747Y822D01*
X347Y821D02*
X383Y821D01*
X411Y821D02*
X447Y821D01*
X647Y821D02*
X683Y821D01*
X711Y821D02*
X747Y821D01*
X347Y820D02*
X383Y820D01*
X410Y820D02*
X447Y820D01*
X647Y820D02*
X683Y820D01*
X710Y820D02*
X747Y820D01*
X347Y819D02*
X384Y819D01*
X410Y819D02*
X446Y819D01*
X647Y819D02*
X684Y819D01*
X710Y819D02*
X746Y819D01*
X348Y818D02*
X385Y818D01*
X409Y818D02*
X446Y818D01*
X648Y818D02*
X685Y818D01*
X709Y818D02*
X746Y818D01*
X348Y817D02*
X386Y817D01*
X408Y817D02*
X445Y817D01*
X648Y817D02*
X686Y817D01*
X708Y817D02*
X745Y817D01*
X349Y816D02*
X387Y816D01*
X406Y816D02*
X445Y816D01*
X649Y816D02*
X687Y816D01*
X706Y816D02*
X745Y816D01*
X350Y815D02*
X389Y815D01*
X405Y815D02*
X444Y815D01*
X650Y815D02*
X689Y815D01*
X705Y815D02*
X744Y815D01*
X350Y814D02*
X391Y814D01*
X402Y814D02*
X443Y814D01*
X650Y814D02*
X691Y814D01*
X702Y814D02*
X743Y814D01*
X351Y813D02*
X443Y813D01*
X651Y813D02*
X743Y813D01*
X352Y812D02*
X442Y812D01*
X652Y812D02*
X742Y812D01*
X353Y811D02*
X441Y811D01*
X653Y811D02*
X741Y811D01*
X354Y810D02*
X440Y810D01*
X654Y810D02*
X740Y810D01*
X355Y809D02*
X439Y809D01*
X655Y809D02*
X739Y809D01*
X356Y808D02*
X437Y808D01*
X656Y808D02*
X737Y808D01*
X358Y807D02*
X436Y807D01*
X658Y807D02*
X736Y807D01*
X360Y806D02*
X434Y806D01*
X660Y806D02*
X734Y806D01*
X362Y805D02*
X432Y805D01*
X662Y805D02*
X732Y805D01*
X365Y804D02*
X429Y804D01*
X665Y804D02*
X729Y804D01*
X369Y755D02*
X425Y755D01*
X669Y755D02*
X725Y755D01*
X364Y754D02*
X430Y754D01*
X664Y754D02*
X730Y754D01*
X361Y753D02*
X433Y753D01*
X661Y753D02*
X733Y753D01*
X359Y752D02*
X434Y752D01*
X659Y752D02*
X734Y752D01*
X357Y751D02*
X436Y751D01*
X657Y751D02*
X736Y751D01*
X356Y750D02*
X438Y750D01*
X656Y750D02*
X738Y750D01*
X355Y749D02*
X439Y749D01*
X655Y749D02*
X739Y749D01*
X354Y748D02*
X440Y748D01*
X653Y748D02*
X740Y748D01*
X353Y747D02*
X441Y747D01*
X652Y747D02*
X741Y747D01*
X352Y746D02*
X442Y746D01*
X652Y746D02*
X742Y746D01*
X351Y745D02*
X395Y745D01*
X399Y745D02*
X443Y745D01*
X651Y745D02*
X695Y745D01*
X699Y745D02*
X743Y745D01*
X350Y744D02*
X391Y744D01*
X403Y744D02*
X444Y744D01*
X650Y744D02*
X690Y744D01*
X703Y744D02*
X744Y744D01*
X349Y743D02*
X388Y743D01*
X405Y743D02*
X444Y743D01*
X649Y743D02*
X688Y743D01*
X705Y743D02*
X744Y743D01*
X349Y742D02*
X387Y742D01*
X407Y742D02*
X445Y742D01*
X649Y742D02*
X687Y742D01*
X707Y742D02*
X745Y742D01*
X348Y741D02*
X386Y741D01*
X408Y741D02*
X445Y741D01*
X648Y741D02*
X686Y741D01*
X708Y741D02*
X745Y741D01*
X348Y740D02*
X385Y740D01*
X409Y740D02*
X446Y740D01*
X648Y740D02*
X685Y740D01*
X709Y740D02*
X746Y740D01*
X347Y739D02*
X384Y739D01*
X410Y739D02*
X446Y739D01*
X647Y739D02*
X684Y739D01*
X710Y739D02*
X746Y739D01*
X347Y738D02*
X383Y738D01*
X411Y738D02*
X447Y738D01*
X647Y738D02*
X683Y738D01*
X711Y738D02*
X747Y738D01*
X347Y737D02*
X382Y737D01*
X411Y737D02*
X447Y737D01*
X647Y737D02*
X682Y737D01*
X711Y737D02*
X747Y737D01*
X346Y736D02*
X382Y736D01*
X412Y736D02*
X447Y736D01*
X646Y736D02*
X682Y736D01*
X712Y736D02*
X747Y736D01*
X346Y735D02*
X381Y735D01*
X412Y735D02*
X448Y735D01*
X646Y735D02*
X681Y735D01*
X712Y735D02*
X748Y735D01*
X346Y734D02*
X381Y734D01*
X412Y734D02*
X448Y734D01*
X646Y734D02*
X681Y734D01*
X712Y734D02*
X748Y734D01*
X346Y733D02*
X381Y733D01*
X413Y733D02*
X448Y733D01*
X646Y733D02*
X681Y733D01*
X713Y733D02*
X748Y733D01*
X345Y732D02*
X381Y732D01*
X413Y732D02*
X448Y732D01*
X645Y732D02*
X681Y732D01*
X713Y732D02*
X748Y732D01*
X345Y731D02*
X381Y731D01*
X413Y731D02*
X448Y731D01*
X645Y731D02*
X680Y731D01*
X713Y731D02*
X748Y731D01*
X345Y730D02*
X380Y730D01*
X413Y730D02*
X448Y730D01*
X645Y730D02*
X680Y730D01*
X713Y730D02*
X748Y730D01*
X345Y729D02*
X380Y729D01*
X413Y729D02*
X448Y729D01*
X645Y729D02*
X680Y729D01*
X713Y729D02*
X748Y729D01*
X345Y728D02*
X380Y728D01*
X413Y728D02*
X448Y728D01*
X645Y728D02*
X680Y728D01*
X713Y728D02*
X748Y728D01*
X345Y727D02*
X381Y727D01*
X413Y727D02*
X448Y727D01*
X645Y727D02*
X681Y727D01*
X713Y727D02*
X748Y727D01*
X346Y726D02*
X381Y726D01*
X413Y726D02*
X448Y726D01*
X645Y726D02*
X681Y726D01*
X713Y726D02*
X748Y726D01*
X346Y725D02*
X381Y725D01*
X413Y725D02*
X448Y725D01*
X646Y725D02*
X681Y725D01*
X713Y725D02*
X748Y725D01*
X346Y724D02*
X381Y724D01*
X412Y724D02*
X448Y724D01*
X646Y724D02*
X681Y724D01*
X712Y724D02*
X748Y724D01*
X346Y723D02*
X382Y723D01*
X412Y723D02*
X448Y723D01*
X646Y723D02*
X682Y723D01*
X712Y723D02*
X748Y723D01*
X346Y722D02*
X382Y722D01*
X412Y722D02*
X447Y722D01*
X646Y722D02*
X682Y722D01*
X712Y722D02*
X747Y722D01*
X347Y721D02*
X383Y721D01*
X411Y721D02*
X447Y721D01*
X647Y721D02*
X683Y721D01*
X711Y721D02*
X747Y721D01*
X347Y720D02*
X383Y720D01*
X410Y720D02*
X447Y720D01*
X647Y720D02*
X683Y720D01*
X710Y720D02*
X747Y720D01*
X347Y719D02*
X384Y719D01*
X410Y719D02*
X446Y719D01*
X647Y719D02*
X684Y719D01*
X710Y719D02*
X746Y719D01*
X348Y718D02*
X385Y718D01*
X409Y718D02*
X446Y718D01*
X648Y718D02*
X685Y718D01*
X709Y718D02*
X746Y718D01*
X348Y717D02*
X386Y717D01*
X408Y717D02*
X445Y717D01*
X648Y717D02*
X686Y717D01*
X708Y717D02*
X745Y717D01*
X349Y716D02*
X387Y716D01*
X406Y716D02*
X445Y716D01*
X649Y716D02*
X687Y716D01*
X706Y716D02*
X745Y716D01*
X350Y715D02*
X389Y715D01*
X405Y715D02*
X444Y715D01*
X650Y715D02*
X689Y715D01*
X705Y715D02*
X744Y715D01*
X350Y714D02*
X391Y714D01*
X402Y714D02*
X443Y714D01*
X650Y714D02*
X691Y714D01*
X702Y714D02*
X743Y714D01*
X351Y713D02*
X443Y713D01*
X651Y713D02*
X743Y713D01*
X352Y712D02*
X442Y712D01*
X652Y712D02*
X742Y712D01*
X353Y711D02*
X441Y711D01*
X653Y711D02*
X741Y711D01*
X354Y710D02*
X440Y710D01*
X654Y710D02*
X740Y710D01*
X355Y709D02*
X439Y709D01*
X655Y709D02*
X739Y709D01*
X356Y708D02*
X437Y708D01*
X656Y708D02*
X737Y708D01*
X358Y707D02*
X436Y707D01*
X658Y707D02*
X736Y707D01*
X360Y706D02*
X434Y706D01*
X660Y706D02*
X734Y706D01*
X362Y705D02*
X432Y705D01*
X662Y705D02*
X732Y705D01*
X365Y704D02*
X429Y704D01*
X665Y704D02*
X729Y704D01*
X369Y655D02*
X425Y655D01*
X669Y655D02*
X725Y655D01*
X364Y654D02*
X430Y654D01*
X664Y654D02*
X730Y654D01*
X361Y653D02*
X433Y653D01*
X661Y653D02*
X733Y653D01*
X359Y652D02*
X434Y652D01*
X659Y652D02*
X734Y652D01*
X357Y651D02*
X436Y651D01*
X657Y651D02*
X736Y651D01*
X356Y650D02*
X438Y650D01*
X656Y650D02*
X738Y650D01*
X355Y649D02*
X439Y649D01*
X655Y649D02*
X739Y649D01*
X353Y648D02*
X440Y648D01*
X653Y648D02*
X740Y648D01*
X352Y647D02*
X441Y647D01*
X652Y647D02*
X741Y647D01*
X352Y646D02*
X442Y646D01*
X652Y646D02*
X742Y646D01*
X351Y645D02*
X395Y645D01*
X399Y645D02*
X443Y645D01*
X651Y645D02*
X695Y645D01*
X699Y645D02*
X743Y645D01*
X350Y644D02*
X390Y644D01*
X403Y644D02*
X444Y644D01*
X650Y644D02*
X690Y644D01*
X703Y644D02*
X744Y644D01*
X349Y643D02*
X388Y643D01*
X405Y643D02*
X444Y643D01*
X649Y643D02*
X688Y643D01*
X705Y643D02*
X744Y643D01*
X349Y642D02*
X387Y642D01*
X407Y642D02*
X445Y642D01*
X649Y642D02*
X687Y642D01*
X707Y642D02*
X745Y642D01*
X348Y641D02*
X386Y641D01*
X408Y641D02*
X445Y641D01*
X648Y641D02*
X686Y641D01*
X708Y641D02*
X745Y641D01*
X348Y640D02*
X385Y640D01*
X409Y640D02*
X446Y640D01*
X648Y640D02*
X685Y640D01*
X709Y640D02*
X746Y640D01*
X347Y639D02*
X384Y639D01*
X410Y639D02*
X446Y639D01*
X647Y639D02*
X684Y639D01*
X710Y639D02*
X746Y639D01*
X347Y638D02*
X383Y638D01*
X411Y638D02*
X447Y638D01*
X647Y638D02*
X683Y638D01*
X711Y638D02*
X747Y638D01*
X347Y637D02*
X382Y637D01*
X411Y637D02*
X447Y637D01*
X647Y637D02*
X682Y637D01*
X711Y637D02*
X747Y637D01*
X346Y636D02*
X382Y636D01*
X412Y636D02*
X447Y636D01*
X646Y636D02*
X682Y636D01*
X712Y636D02*
X747Y636D01*
X346Y635D02*
X381Y635D01*
X412Y635D02*
X448Y635D01*
X646Y635D02*
X681Y635D01*
X712Y635D02*
X748Y635D01*
X346Y634D02*
X381Y634D01*
X412Y634D02*
X448Y634D01*
X646Y634D02*
X681Y634D01*
X712Y634D02*
X748Y634D01*
X346Y633D02*
X381Y633D01*
X413Y633D02*
X448Y633D01*
X646Y633D02*
X681Y633D01*
X713Y633D02*
X748Y633D01*
X345Y632D02*
X381Y632D01*
X413Y632D02*
X448Y632D01*
X645Y632D02*
X681Y632D01*
X713Y632D02*
X748Y632D01*
X345Y631D02*
X381Y631D01*
X413Y631D02*
X448Y631D01*
X645Y631D02*
X680Y631D01*
X713Y631D02*
X748Y631D01*
X345Y630D02*
X380Y630D01*
X413Y630D02*
X448Y630D01*
X645Y630D02*
X680Y630D01*
X713Y630D02*
X748Y630D01*
X345Y629D02*
X380Y629D01*
X413Y629D02*
X448Y629D01*
X645Y629D02*
X680Y629D01*
X713Y629D02*
X748Y629D01*
X345Y628D02*
X380Y628D01*
X413Y628D02*
X448Y628D01*
X645Y628D02*
X680Y628D01*
X713Y628D02*
X748Y628D01*
X345Y627D02*
X381Y627D01*
X413Y627D02*
X448Y627D01*
X645Y627D02*
X681Y627D01*
X713Y627D02*
X748Y627D01*
X346Y626D02*
X381Y626D01*
X413Y626D02*
X448Y626D01*
X645Y626D02*
X681Y626D01*
X713Y626D02*
X748Y626D01*
X346Y625D02*
X381Y625D01*
X413Y625D02*
X448Y625D01*
X646Y625D02*
X681Y625D01*
X713Y625D02*
X748Y625D01*
X346Y624D02*
X381Y624D01*
X412Y624D02*
X448Y624D01*
X646Y624D02*
X681Y624D01*
X712Y624D02*
X748Y624D01*
X346Y623D02*
X382Y623D01*
X412Y623D02*
X448Y623D01*
X646Y623D02*
X682Y623D01*
X712Y623D02*
X748Y623D01*
X346Y622D02*
X382Y622D01*
X412Y622D02*
X447Y622D01*
X646Y622D02*
X682Y622D01*
X712Y622D02*
X747Y622D01*
X347Y621D02*
X383Y621D01*
X411Y621D02*
X447Y621D01*
X647Y621D02*
X683Y621D01*
X711Y621D02*
X747Y621D01*
X347Y620D02*
X383Y620D01*
X410Y620D02*
X447Y620D01*
X647Y620D02*
X683Y620D01*
X710Y620D02*
X747Y620D01*
X347Y619D02*
X384Y619D01*
X410Y619D02*
X446Y619D01*
X647Y619D02*
X684Y619D01*
X710Y619D02*
X746Y619D01*
X348Y618D02*
X385Y618D01*
X409Y618D02*
X446Y618D01*
X648Y618D02*
X685Y618D01*
X709Y618D02*
X746Y618D01*
X348Y617D02*
X386Y617D01*
X408Y617D02*
X445Y617D01*
X648Y617D02*
X686Y617D01*
X708Y617D02*
X745Y617D01*
X349Y616D02*
X387Y616D01*
X406Y616D02*
X445Y616D01*
X649Y616D02*
X687Y616D01*
X706Y616D02*
X745Y616D01*
X350Y615D02*
X389Y615D01*
X405Y615D02*
X444Y615D01*
X650Y615D02*
X689Y615D01*
X705Y615D02*
X744Y615D01*
X350Y614D02*
X391Y614D01*
X402Y614D02*
X443Y614D01*
X650Y614D02*
X691Y614D01*
X702Y614D02*
X743Y614D01*
X351Y613D02*
X443Y613D01*
X651Y613D02*
X743Y613D01*
X352Y612D02*
X442Y612D01*
X652Y612D02*
X742Y612D01*
X353Y611D02*
X441Y611D01*
X653Y611D02*
X741Y611D01*
X354Y610D02*
X440Y610D01*
X654Y610D02*
X740Y610D01*
X355Y609D02*
X439Y609D01*
X655Y609D02*
X739Y609D01*
X356Y608D02*
X437Y608D01*
X656Y608D02*
X737Y608D01*
X358Y607D02*
X436Y607D01*
X658Y607D02*
X736Y607D01*
X360Y606D02*
X434Y606D01*
X660Y606D02*
X734Y606D01*
X362Y605D02*
X432Y605D01*
X662Y605D02*
X732Y605D01*
X365Y604D02*
X429Y604D01*
X665Y604D02*
X729Y604D01*
X369Y555D02*
X425Y555D01*
X669Y555D02*
X725Y555D01*
X364Y554D02*
X430Y554D01*
X664Y554D02*
X730Y554D01*
X361Y553D02*
X433Y553D01*
X661Y553D02*
X733Y553D01*
X359Y552D02*
X434Y552D01*
X659Y552D02*
X734Y552D01*
X357Y551D02*
X436Y551D01*
X657Y551D02*
X736Y551D01*
X356Y550D02*
X438Y550D01*
X656Y550D02*
X738Y550D01*
X355Y549D02*
X439Y549D01*
X655Y549D02*
X739Y549D01*
X353Y548D02*
X440Y548D01*
X653Y548D02*
X740Y548D01*
X352Y547D02*
X441Y547D01*
X652Y547D02*
X741Y547D01*
X352Y546D02*
X442Y546D01*
X652Y546D02*
X742Y546D01*
X351Y545D02*
X395Y545D01*
X399Y545D02*
X443Y545D01*
X651Y545D02*
X695Y545D01*
X699Y545D02*
X743Y545D01*
X350Y544D02*
X390Y544D01*
X403Y544D02*
X444Y544D01*
X650Y544D02*
X690Y544D01*
X703Y544D02*
X744Y544D01*
X349Y543D02*
X388Y543D01*
X405Y543D02*
X444Y543D01*
X649Y543D02*
X688Y543D01*
X705Y543D02*
X744Y543D01*
X349Y542D02*
X387Y542D01*
X407Y542D02*
X445Y542D01*
X649Y542D02*
X687Y542D01*
X707Y542D02*
X745Y542D01*
X348Y541D02*
X386Y541D01*
X408Y541D02*
X445Y541D01*
X648Y541D02*
X686Y541D01*
X708Y541D02*
X745Y541D01*
X348Y540D02*
X385Y540D01*
X409Y540D02*
X446Y540D01*
X648Y540D02*
X685Y540D01*
X709Y540D02*
X746Y540D01*
X347Y539D02*
X384Y539D01*
X410Y539D02*
X446Y539D01*
X647Y539D02*
X684Y539D01*
X710Y539D02*
X746Y539D01*
X347Y538D02*
X383Y538D01*
X411Y538D02*
X447Y538D01*
X647Y538D02*
X683Y538D01*
X711Y538D02*
X747Y538D01*
X347Y537D02*
X382Y537D01*
X411Y537D02*
X447Y537D01*
X647Y537D02*
X682Y537D01*
X711Y537D02*
X747Y537D01*
X346Y536D02*
X382Y536D01*
X412Y536D02*
X447Y536D01*
X646Y536D02*
X682Y536D01*
X712Y536D02*
X747Y536D01*
X346Y535D02*
X381Y535D01*
X412Y535D02*
X448Y535D01*
X646Y535D02*
X681Y535D01*
X712Y535D02*
X748Y535D01*
X346Y534D02*
X381Y534D01*
X412Y534D02*
X448Y534D01*
X646Y534D02*
X681Y534D01*
X712Y534D02*
X748Y534D01*
X346Y533D02*
X381Y533D01*
X413Y533D02*
X448Y533D01*
X646Y533D02*
X681Y533D01*
X713Y533D02*
X748Y533D01*
X345Y532D02*
X381Y532D01*
X413Y532D02*
X448Y532D01*
X645Y532D02*
X681Y532D01*
X713Y532D02*
X748Y532D01*
X345Y531D02*
X381Y531D01*
X413Y531D02*
X448Y531D01*
X645Y531D02*
X680Y531D01*
X713Y531D02*
X748Y531D01*
X345Y530D02*
X380Y530D01*
X413Y530D02*
X448Y530D01*
X645Y530D02*
X680Y530D01*
X713Y530D02*
X748Y530D01*
X345Y529D02*
X380Y529D01*
X413Y529D02*
X448Y529D01*
X645Y529D02*
X680Y529D01*
X713Y529D02*
X748Y529D01*
X345Y528D02*
X380Y528D01*
X413Y528D02*
X448Y528D01*
X645Y528D02*
X680Y528D01*
X713Y528D02*
X748Y528D01*
X345Y527D02*
X381Y527D01*
X413Y527D02*
X448Y527D01*
X645Y527D02*
X681Y527D01*
X713Y527D02*
X748Y527D01*
X346Y526D02*
X381Y526D01*
X413Y526D02*
X448Y526D01*
X645Y526D02*
X681Y526D01*
X713Y526D02*
X748Y526D01*
X346Y525D02*
X381Y525D01*
X413Y525D02*
X448Y525D01*
X646Y525D02*
X681Y525D01*
X713Y525D02*
X748Y525D01*
X346Y524D02*
X381Y524D01*
X412Y524D02*
X448Y524D01*
X646Y524D02*
X681Y524D01*
X712Y524D02*
X748Y524D01*
X346Y523D02*
X382Y523D01*
X412Y523D02*
X448Y523D01*
X646Y523D02*
X682Y523D01*
X712Y523D02*
X748Y523D01*
X346Y522D02*
X382Y522D01*
X412Y522D02*
X447Y522D01*
X646Y522D02*
X682Y522D01*
X712Y522D02*
X747Y522D01*
X347Y521D02*
X383Y521D01*
X411Y521D02*
X447Y521D01*
X647Y521D02*
X683Y521D01*
X711Y521D02*
X747Y521D01*
X347Y520D02*
X383Y520D01*
X410Y520D02*
X447Y520D01*
X647Y520D02*
X683Y520D01*
X710Y520D02*
X747Y520D01*
X347Y519D02*
X384Y519D01*
X410Y519D02*
X446Y519D01*
X647Y519D02*
X684Y519D01*
X710Y519D02*
X746Y519D01*
X348Y518D02*
X385Y518D01*
X409Y518D02*
X446Y518D01*
X648Y518D02*
X685Y518D01*
X709Y518D02*
X746Y518D01*
X348Y517D02*
X386Y517D01*
X408Y517D02*
X445Y517D01*
X648Y517D02*
X686Y517D01*
X708Y517D02*
X745Y517D01*
X349Y516D02*
X387Y516D01*
X406Y516D02*
X445Y516D01*
X649Y516D02*
X687Y516D01*
X706Y516D02*
X745Y516D01*
X350Y515D02*
X389Y515D01*
X405Y515D02*
X444Y515D01*
X650Y515D02*
X689Y515D01*
X705Y515D02*
X744Y515D01*
X350Y514D02*
X391Y514D01*
X402Y514D02*
X443Y514D01*
X650Y514D02*
X691Y514D01*
X702Y514D02*
X743Y514D01*
X351Y513D02*
X443Y513D01*
X651Y513D02*
X743Y513D01*
X352Y512D02*
X442Y512D01*
X652Y512D02*
X742Y512D01*
X353Y511D02*
X441Y511D01*
X653Y511D02*
X741Y511D01*
X354Y510D02*
X440Y510D01*
X654Y510D02*
X740Y510D01*
X355Y509D02*
X439Y509D01*
X655Y509D02*
X739Y509D01*
X356Y508D02*
X437Y508D01*
X656Y508D02*
X737Y508D01*
X358Y507D02*
X436Y507D01*
X658Y507D02*
X736Y507D01*
X360Y506D02*
X434Y506D01*
X660Y506D02*
X734Y506D01*
X362Y505D02*
X432Y505D01*
X662Y505D02*
X732Y505D01*
X365Y504D02*
X429Y504D01*
X665Y504D02*
X729Y504D01*
D02*
G04 End of Copper1*
M02*